<svg xmlns="http://www.w3.org/2000/svg" width="64" height="64" viewBox="0 0 64 64" fill="none">
  <circle opacity="0.6" cx="32" cy="32" r="32" fill="#B3B3B3"/>
  <path d="M44.9409 36.3278L44.9408 36.3277L33.2479 25.0051C32.9146 24.6821 32.4709 24.5 32.0073 24.5C31.5437 24.5 31.1 24.6821 30.7667 25.0051L19.0748 36.3255C18.901 36.4898 18.7613 36.6871 18.6631 36.9057C18.5644 37.1254 18.5095 37.3625 18.5011 37.6033C18.4928 37.8441 18.5312 38.0845 18.6143 38.3105C18.6975 38.5366 18.8239 38.7443 18.9868 38.9212C19.1498 39.0982 19.3461 39.2409 19.5648 39.3404C19.7834 39.44 20.0197 39.4942 20.2598 39.4996C20.4999 39.5049 20.7383 39.4613 20.9612 39.3715C21.1828 39.2822 21.3843 39.1492 21.5542 38.9808L32.0073 28.8602L42.4599 38.9829C42.46 38.9829 42.46 38.9829 42.46 38.983C42.6313 39.1488 42.8334 39.2792 43.0551 39.3659C43.277 39.4527 43.5137 39.4939 43.7517 39.487C43.9897 39.4801 44.2236 39.4252 44.4401 39.3258C44.6566 39.2265 44.851 39.0847 45.0126 38.9094C45.1743 38.734 45.3 38.5284 45.3833 38.3046C45.4665 38.0808 45.5059 37.8427 45.4993 37.6039C45.4927 37.365 45.4403 37.1295 45.3447 36.9107C45.2492 36.6919 45.1122 36.4937 44.9409 36.3278Z" fill="white" stroke="white"/>
</svg>