<svg width="95" height="21" viewBox="0 0 95 21" fill="none" xmlns="http://www.w3.org/2000/svg">
<g id="Header 1" clip-path="url(#clip0_601_1975)">
<g id="Clip path group">
<mask id="mask0_601_1975" style="mask-type:luminance" maskUnits="userSpaceOnUse" x="0" y="0" width="95" height="21">
<g id="clip0_220_26">
<path id="Vector" d="M94.5361 0.296875H0V20.2969H94.5361V0.296875Z" fill="white"/>
</g>
</mask>
<g mask="url(#mask0_601_1975)">
<g id="Group">
<path id="Vector_2" d="M19.4425 12.7169C18.1242 18.074 12.7688 21.3343 7.48067 19.9984C2.19468 18.6628 -1.02325 13.2366 0.295624 7.87982C1.61326 2.52206 6.96866 -0.738508 12.2553 0.597095C17.5431 1.9327 20.7607 7.35951 19.4425 12.7169Z" fill="#F7931A"/>
<path id="Vector_3" d="M14.2225 8.87307C14.4189 7.54251 13.419 6.8272 12.0517 6.35L12.4953 4.54753L11.4123 4.2741L10.9805 6.02906C10.6958 5.9572 10.4034 5.88938 10.1129 5.8222L10.5478 4.05566L9.4655 3.78223L9.02165 5.58407C8.786 5.5297 8.55467 5.47595 8.33012 5.41939L8.33136 5.41376L6.83788 5.03595L6.5498 6.20781C6.5498 6.20781 7.35329 6.39437 7.33633 6.40593C7.77493 6.51687 7.8542 6.81095 7.84094 7.04407L7.33571 9.09745C7.36594 9.10526 7.40511 9.11651 7.44829 9.13401C7.4122 9.12495 7.37365 9.11494 7.33386 9.10526L6.62568 11.9818C6.57201 12.1168 6.43599 12.3193 6.12943 12.2424C6.14022 12.2583 5.34229 12.0433 5.34229 12.0433L4.80469 13.2993L6.21391 13.6552C6.47608 13.7218 6.73301 13.7914 6.98594 13.8571L6.53777 15.6802L7.61948 15.9536L8.06332 14.1499C8.35881 14.2311 8.64566 14.3061 8.92634 14.3768L8.48404 16.172L9.56698 16.4454L10.0151 14.6258C11.8617 14.9799 13.2503 14.8371 13.8348 13.1449C14.3057 11.7824 13.8113 10.9965 12.8398 10.484C13.5474 10.3187 14.0803 9.84713 14.2225 8.87307ZM11.7482 12.3883C11.4136 13.7508 9.14935 13.0143 8.41526 12.8296L9.00993 10.4143C9.74402 10.5999 12.098 10.9674 11.7482 12.3883ZM12.0832 8.85338C11.7778 10.0928 9.89325 9.46307 9.28198 9.3087L9.82113 7.11813C10.4324 7.27251 12.4012 7.56063 12.0832 8.85338Z" fill="#262626"/>
<path id="Vector_4" d="M28.9241 6.34818C29.7244 6.34818 30.416 6.49349 30.9971 6.77882C31.5809 7.06695 32.0627 7.45507 32.4492 7.94313C32.8304 8.43376 33.1141 9.0072 33.2974 9.66438C33.4793 10.3234 33.5706 11.0319 33.5706 11.7903C33.5706 12.9553 33.36 14.0559 32.9347 15.0934C32.5093 16.1324 31.9323 17.0336 31.1982 17.8024C30.4647 18.5702 29.5986 19.1755 28.5999 19.6226C27.6027 20.0701 26.5185 20.2939 25.3545 20.2939C25.204 20.2939 24.9394 20.2895 24.5656 20.2817C24.1917 20.2739 23.7621 20.2348 23.2809 20.1689C22.7966 20.1004 22.2846 19.9992 21.7439 19.8636C21.2036 19.7304 20.6904 19.5439 20.207 19.3071L24.5289 0.908586L28.3997 0.300781L26.8523 6.82976C27.1835 6.67851 27.5173 6.56132 27.8504 6.47599C28.1838 6.39193 28.5416 6.34818 28.9241 6.34818ZM25.6771 17.1827C26.2601 17.1827 26.8094 17.0374 27.3254 16.7521C27.843 16.4664 28.2896 16.0808 28.6638 15.6005C29.0379 15.1181 29.3339 14.5746 29.5498 13.9674C29.7658 13.3603 29.8749 12.7268 29.8749 12.0678C29.8749 11.2581 29.7414 10.6266 29.4752 10.17C29.209 9.71532 28.7165 9.48657 28.0012 9.48657C27.7668 9.48657 27.4648 9.53188 27.0904 9.61282C26.7147 9.69876 26.3785 9.8772 26.0772 10.1456L24.4295 17.0793C24.5289 17.0971 24.6168 17.1139 24.6917 17.1299C24.7651 17.1471 24.8462 17.1593 24.927 17.1677C25.0124 17.1774 25.1103 17.1824 25.2284 17.1824C25.3465 17.1824 25.4942 17.1827 25.6771 17.1827Z" fill="#262626"/>
<path id="Vector_5" d="M37.5839 19.9419H33.8867L37.009 6.63056H40.7315L37.5839 19.9419ZM39.383 5.00872C38.8671 5.00872 38.3992 4.85309 37.984 4.54123C37.5654 4.23123 37.3582 3.75405 37.3582 3.11094C37.3582 2.75719 37.4291 2.42532 37.5698 2.1122C37.7126 1.79971 37.8992 1.53065 38.133 1.3019C38.3665 1.07503 38.637 0.893781 38.9442 0.75722C39.2532 0.622847 39.582 0.555664 39.9324 0.555664C40.4481 0.555664 40.9135 0.711288 41.3302 1.02316C41.7454 1.33659 41.9542 1.81377 41.9542 2.45344C41.9542 2.80844 41.8836 3.14156 41.7417 3.45406C41.6007 3.76655 41.4141 4.03561 41.1803 4.26435C40.9487 4.49153 40.6757 4.67216 40.3691 4.80747C40.0597 4.94403 39.7322 5.00872 39.383 5.00872Z" fill="#262626"/>
<path id="Vector_6" d="M43.9722 3.31386L47.8446 2.70605L46.8937 6.62976H51.0409L50.292 9.71657H46.1698L45.0717 14.3728C44.9705 14.7609 44.9132 15.1234 44.8972 15.4603C44.879 15.7987 44.9213 16.0893 45.0212 16.3339C45.1205 16.5793 45.299 16.7683 45.5581 16.9021C45.816 17.038 46.1852 17.1064 46.6694 17.1064C47.0682 17.1064 47.4569 17.068 47.8326 16.9918C48.2061 16.9168 48.5845 16.8124 48.9676 16.6758L49.2433 19.5621C48.7437 19.7477 48.2027 19.9074 47.6197 20.0418C47.0359 20.1779 46.3446 20.2436 45.5458 20.2436C44.3972 20.2436 43.5067 20.0708 42.8723 19.7268C42.2387 19.3802 41.7909 18.9068 41.5228 18.3074C41.2585 17.7102 41.1404 17.0218 41.1734 16.2461C41.2076 15.4687 41.3233 14.6515 41.5228 13.7909L43.9722 3.31386Z" fill="#262626"/>
<path id="Vector_7" d="M50.8789 14.6258C50.8789 13.4792 51.0621 12.398 51.4282 11.3858C51.7937 10.3727 52.3203 9.48677 53.0034 8.72646C53.6841 7.96996 54.5135 7.37058 55.4897 6.93058C56.4613 6.49308 57.5491 6.27246 58.7481 6.27246C59.4985 6.27246 60.1687 6.34434 60.7584 6.4884C61.3506 6.6337 61.8865 6.82152 62.3708 7.05714L61.0958 9.99458C60.7627 9.85771 60.417 9.73708 60.0595 9.62771C59.7018 9.51614 59.265 9.46239 58.7484 9.46239C57.5143 9.46239 56.5387 9.89333 55.8127 10.7524C55.0894 11.6121 54.7251 12.7692 54.7251 14.2208C54.7251 15.0811 54.9083 15.7767 55.276 16.3089C55.6418 16.841 56.3176 17.1057 57.2987 17.1057C57.7829 17.1057 58.2502 17.0545 58.6978 16.9545C59.1487 16.8533 59.5469 16.7257 59.8976 16.5751L60.1737 19.5863C59.7061 19.7701 59.1904 19.936 58.6247 20.0813C58.0578 20.2216 57.3829 20.2945 56.6004 20.2945C55.5675 20.2945 54.693 20.1413 53.9778 19.8398C53.2622 19.5335 52.6709 19.127 52.2052 18.612C51.737 18.0957 51.4008 17.4929 51.1929 16.8011C50.985 16.1098 50.8789 15.3836 50.8789 14.6258Z" fill="#262626"/>
<path id="Vector_8" d="M67.3035 20.2945C66.4208 20.2945 65.6546 20.1582 65.0044 19.8885C64.3561 19.6188 63.8188 19.2404 63.3943 18.7498C62.9687 18.2616 62.6504 17.6832 62.4326 17.0166C62.2142 16.3505 62.1094 15.6126 62.1094 14.8042C62.1094 13.7901 62.2704 12.7765 62.5949 11.7655C62.9181 10.7524 63.398 9.84208 64.0328 9.03308C64.6627 8.22277 65.4393 7.56027 66.3541 7.0437C67.2684 6.53058 68.3195 6.27246 69.4996 6.27246C70.3664 6.27246 71.1288 6.40902 71.7877 6.6787C72.444 6.94777 72.9844 7.32933 73.4113 7.81746C73.8339 8.30808 74.1553 8.88402 74.3712 9.55146C74.5883 10.2165 74.6956 10.9561 74.6956 11.7652C74.6956 12.7761 74.5371 13.7898 74.2225 14.8039C73.9079 15.813 73.4403 16.7255 72.8234 17.5363C72.2078 18.3454 71.4379 19.0076 70.5132 19.522C69.5897 20.0363 68.5194 20.2945 67.3035 20.2945ZM69.1511 9.46271C68.6033 9.46271 68.1184 9.62396 67.7039 9.94239C67.2875 10.2646 66.9377 10.6696 66.6558 11.158C66.3708 11.6486 66.1592 12.1836 66.0167 12.7652C65.8748 13.348 65.8057 13.8989 65.8057 14.4223C65.8057 15.267 65.9402 15.9248 66.2042 16.3983C66.4726 16.8692 66.9538 17.106 67.6539 17.106C68.2036 17.106 68.686 16.946 69.103 16.6242C69.5169 16.3045 69.8667 15.8992 70.1511 15.4098C70.4342 14.9217 70.647 14.3851 70.7902 13.8026C70.9296 13.2217 71.0011 12.6677 71.0011 12.1452C71.0011 11.3027 70.8673 10.6433 70.6002 10.1705C70.3337 9.69958 69.85 9.46271 69.1511 9.46271Z" fill="#262626"/>
<path id="Vector_9" d="M78.7235 19.9419H75.0234L78.1455 6.63056H81.8702L78.7235 19.9419ZM80.5199 5.00872C80.0042 5.00872 79.5366 4.85309 79.122 4.54123C78.7056 4.23123 78.4965 3.75405 78.4965 3.11094C78.4965 2.75719 78.5687 2.42532 78.7093 2.1122C78.8506 1.79971 79.0381 1.53065 79.2719 1.3019C79.5045 1.07503 79.7771 0.893781 80.0837 0.75722C80.3909 0.622847 80.7197 0.555664 81.0689 0.555664C81.5858 0.555664 82.0528 0.711288 82.4686 1.02316C82.885 1.33659 83.0947 1.81377 83.0947 2.45344C83.0947 2.80844 83.0201 3.14156 82.8807 3.45406C82.7406 3.76655 82.5531 4.03561 82.3199 4.26435C82.0855 4.49153 81.8159 4.67216 81.5087 4.80747C81.1991 4.94403 80.8709 5.00872 80.5199 5.00872Z" fill="#262626"/>
<path id="Vector_10" d="M84.5357 7.23539C84.8164 7.15226 85.1297 7.05232 85.4709 6.94357C85.8126 6.83482 86.1951 6.73357 86.622 6.64232C87.0439 6.54826 87.5208 6.47199 88.0445 6.41293C88.5689 6.35262 89.166 6.32324 89.8292 6.32324C91.7791 6.32324 93.1233 6.89857 93.8654 8.0457C94.6069 9.19289 94.7352 10.7629 94.2541 12.7528L92.5533 19.9402H88.8317L90.48 12.9041C90.5805 12.4647 90.6595 12.04 90.7181 11.625C90.7767 11.2138 90.7736 10.8513 90.7045 10.5376C90.6391 10.2276 90.4843 9.97382 90.2437 9.77726C90 9.58382 89.6311 9.48664 89.1315 9.48664C88.649 9.48664 88.1586 9.53914 87.6583 9.64039L85.2346 19.9399H81.5117L84.5357 7.23539Z" fill="#262626"/>
</g>
</g>
</g>
</g>
<defs>
<clipPath id="clip0_601_1975">
<rect width="95" height="20" fill="white" transform="translate(0 0.296875)"/>
</clipPath>
</defs>
</svg>
