<svg width="173" height="25" viewBox="0 0 173 25" fill="none" xmlns="http://www.w3.org/2000/svg">
<g id="Group 34">
<path id="Vector" fill-rule="evenodd" clip-rule="evenodd" d="M17.4028 20.0024V11.7897C17.4028 9.46661 16.1384 8.35413 14.0088 8.35413C12.2452 8.35413 10.7145 9.40117 10.0158 10.4155C9.58319 9.10669 8.51839 8.35413 6.82137 8.35413C5.05779 8.35413 3.52715 9.43389 3.02802 10.121V8.64861H0V20.0024H3.02802V12.346C3.49387 11.7243 4.35902 11.0044 5.42382 11.0044C6.65499 11.0044 7.15412 11.757 7.15412 12.804V20.0024H10.2154V12.3132C10.648 11.6916 11.5464 11.0044 12.6112 11.0044C13.8424 11.0044 14.3415 11.757 14.3415 12.804V20.0024H17.4028ZM25.7881 20.2969C21.9947 20.2969 19.6655 17.5484 19.6655 14.3091C19.6655 11.0699 21.9615 8.35413 25.7881 8.35413C29.6147 8.35413 31.9107 11.1026 31.9107 14.3091C31.9107 17.5484 29.6147 20.2969 25.7881 20.2969ZM25.7881 17.6138C27.6848 17.6138 28.7496 16.076 28.7496 14.2764C28.7496 12.5096 27.6848 10.9717 25.7881 10.9717C23.8914 10.9717 22.8266 12.5096 22.8266 14.2764C22.8266 16.076 23.8914 17.6138 25.7881 17.6138ZM45.021 20.0024V11.9533C45.021 9.72837 43.7898 8.32141 41.2609 8.32141C39.3643 8.32141 37.9667 9.20485 37.2014 10.0883V8.61589H34.1734V20.0024H37.2014V12.346C37.7005 11.6588 38.6322 11.0044 39.8301 11.0044C41.1278 11.0044 41.9597 11.5607 41.9597 13.1312V20.0024H45.021ZM53.4063 20.2969C49.613 20.2969 47.2837 17.5484 47.2837 14.3091C47.2837 11.0699 49.5797 8.35413 53.4063 8.35413C57.2329 8.35413 59.5289 11.1026 59.5289 14.3091C59.5289 17.5484 57.2329 20.2969 53.4063 20.2969ZM53.4063 17.6138C55.303 17.6138 56.3678 16.076 56.3678 14.2764C56.3678 12.5096 55.303 10.9717 53.4063 10.9717C51.5096 10.9717 50.4448 12.5096 50.4448 14.2764C50.4448 16.076 51.5096 17.6138 53.4063 17.6138ZM64.8196 16.3378C65.3187 17.0576 66.4501 17.6138 67.4151 17.6138C69.1786 17.6138 70.3765 16.3051 70.3765 14.3091C70.3765 12.3132 69.2119 10.9717 67.4151 10.9717C66.4168 10.9717 65.3187 11.528 64.8196 12.2805V16.3378ZM64.8196 20.0024H61.7916V4.29688H64.8196V10.0883C65.718 8.94309 67.0158 8.35413 68.38 8.35413C71.3415 8.35413 73.5044 10.6118 73.5044 14.3419C73.5044 18.1374 71.3082 20.2969 68.38 20.2969C66.9825 20.2969 65.718 19.6752 64.8196 18.5627V20.0024ZM85.8161 20.0024H82.7881V18.8245C81.9895 19.7406 80.6252 20.2969 79.1278 20.2969C77.2977 20.2969 75.1016 19.0862 75.1016 16.5341C75.1016 13.8838 77.2977 12.8695 79.1278 12.8695C80.6585 12.8695 82.0228 13.3603 82.7881 14.2437V12.7059C82.7881 11.5607 81.7898 10.8081 80.2592 10.8081C79.028 10.8081 77.8634 11.2662 76.8652 12.1496L75.7005 10.1537C77.0981 8.94309 78.9282 8.35413 80.7583 8.35413C83.387 8.35413 85.8161 9.40117 85.8161 12.6732C85.8161 12.6404 85.8161 20.0024 85.8161 20.0024ZM80.3257 18.2682C81.324 18.2682 82.2557 17.941 82.7548 17.2866V15.8797C82.2557 15.2253 81.2907 14.8981 80.3257 14.8981C79.1278 14.8981 78.1296 15.5198 78.1296 16.6323C78.1629 17.6466 79.1278 18.2682 80.3257 18.2682ZM99.6918 20.0024V11.9533C99.6918 9.72837 98.4606 8.32141 95.9317 8.32141C94.035 8.32141 92.6375 9.20485 91.8722 10.0883V8.61589H88.8441V20.0024H91.8722V12.346C92.3713 11.6588 93.303 11.0044 94.5009 11.0044C95.7986 11.0044 96.6305 11.5607 96.6305 13.1312V20.0024H99.6918ZM114 20.0024L109.275 13.7856L113.867 8.61589H110.14L105.748 13.6875V4.29688H102.72V20.0024H105.748V17.0903L107.145 15.6179L110.207 20.0024H114Z" fill="black"/>
</g>
</svg>
