<svg width="94" height="25" viewBox="0 0 94 25" fill="none" xmlns="http://www.w3.org/2000/svg">
<g id="paypal-logos-id4wNJYpBf 1">
<path id="Vector" d="M82.0033 5.90281L79.9973 18.2491C79.9897 18.2944 79.9924 18.3408 80.0052 18.385C80.0179 18.4292 80.0403 18.4702 80.0709 18.505C80.1015 18.5398 80.1395 18.5677 80.1822 18.5866C80.2249 18.6055 80.2714 18.615 80.3183 18.6145H82.6923C82.776 18.6152 82.8573 18.5865 82.9213 18.5336C82.9853 18.4806 83.0279 18.407 83.0413 18.326L85.0473 5.97971C85.0548 5.93438 85.0521 5.88798 85.0393 5.84377C85.0266 5.79957 85.0042 5.75862 84.9736 5.72381C84.943 5.689 84.905 5.66116 84.8623 5.64224C84.8196 5.62333 84.7731 5.6138 84.7262 5.61432H82.3522C82.2682 5.6127 82.1865 5.64107 82.1223 5.69416C82.058 5.74725 82.0157 5.82141 82.0033 5.90281ZM79.4683 9.50575H77.2157C77.1321 9.50495 77.0509 9.53357 76.987 9.58642C76.923 9.63927 76.8805 9.71283 76.8673 9.79375L76.7928 10.2483C76.7928 10.2483 75.0433 8.39 71.9458 9.64583C70.1688 10.3649 69.3157 11.8504 68.9527 12.9387C68.9527 12.9387 67.8007 16.2463 70.4062 18.0669C70.4062 18.0669 72.8223 19.8179 75.5428 17.9591L75.4957 18.2491C75.4849 18.3172 75.4971 18.3869 75.5305 18.4476C75.5639 18.5083 75.6167 18.5566 75.6808 18.5851C75.7233 18.6047 75.7697 18.6145 75.8167 18.6145H78.0708C78.1548 18.6161 78.2365 18.5877 78.3007 18.5347C78.365 18.4816 78.4073 18.4074 78.4198 18.326L79.7908 9.87114C79.7984 9.82586 79.7957 9.77947 79.7828 9.73533C79.77 9.6912 79.7472 9.65042 79.7163 9.61596C79.6857 9.58084 79.6477 9.55272 79.6048 9.53359C79.562 9.51447 79.5153 9.50528 79.4683 9.50575ZM76.1538 14.1784C76.0659 14.7691 75.761 15.3082 75.2962 15.6943C74.8295 16.0819 74.2356 16.2912 73.6238 16.2835C73.3838 16.2863 73.1449 16.2522 72.9158 16.1826C71.9433 15.879 71.3883 14.9709 71.5478 13.9864C71.6363 13.396 71.9415 12.8574 72.4062 12.4715C72.8726 12.0837 73.4661 11.8738 74.0777 11.8803C74.3177 11.8779 74.5566 11.9122 74.7857 11.9822C75.7642 12.2839 76.3167 13.1934 76.1562 14.1789H76.1538V14.1784ZM64.1258 14.412C65.3473 14.412 66.5288 13.9869 67.4568 13.214C68.3828 12.4437 68.996 11.3735 69.1848 10.1978C69.5793 7.75228 67.6147 5.61775 64.8297 5.61775H60.3433C60.2595 5.61697 60.1783 5.64566 60.1143 5.6986C60.0504 5.75155 60.0079 5.82523 59.9947 5.90624L57.9883 18.2525C57.9774 18.3206 57.9896 18.3904 58.023 18.4511C58.0564 18.5117 58.1092 18.56 58.1732 18.5885C58.2162 18.6081 58.2623 18.6179 58.3093 18.6179H60.6848C60.7685 18.6187 60.8497 18.59 60.9137 18.5371C60.9776 18.4841 61.0201 18.4104 61.0332 18.3294L61.6223 14.704C61.6346 14.6225 61.6769 14.5482 61.7411 14.495C61.8054 14.4418 61.8872 14.4134 61.9712 14.415L64.1258 14.412ZM66.1128 10.0867C65.9663 10.9908 65.2473 11.6564 63.8718 11.6564H62.1133L62.6472 8.36845H64.3742C65.7962 8.3709 66.2593 9.18641 66.1128 10.0891V10.0867Z" fill="#0070E0"/>
<path id="Vector_2" d="M55.2839 9.71532L52.5669 14.1749L51.1879 9.74814C51.1663 9.6775 51.1219 9.61564 51.0613 9.57191C51.0007 9.52817 50.9272 9.50493 50.8519 9.50569H48.3999C48.3365 9.50485 48.2749 9.5265 48.2264 9.56664C48.178 9.60679 48.146 9.66272 48.1364 9.72414C48.1304 9.76486 48.1347 9.8064 48.1489 9.84512L50.6199 17.3018L48.3849 20.8156C48.3659 20.8445 48.3532 20.8769 48.3474 20.9108C48.3417 20.9448 48.3431 20.9795 48.3515 21.0128C48.3599 21.0462 48.3752 21.0776 48.3964 21.105C48.4177 21.1323 48.4444 21.1552 48.4749 21.1721C48.5158 21.1952 48.5622 21.207 48.6094 21.2064H51.2504C51.3258 21.2067 51.3999 21.1879 51.4657 21.1518C51.5315 21.1158 51.5867 21.0638 51.6259 21.0007L58.5279 9.89851C58.5529 9.85985 58.5666 9.81522 58.5676 9.76946C58.5686 9.7237 58.5568 9.67856 58.5334 9.63892C58.5101 9.59914 58.4763 9.56621 58.4356 9.54356C58.3949 9.5209 58.3487 9.50935 58.3019 9.5101H55.6619C55.5862 9.50942 55.5115 9.52796 55.4453 9.56393C55.3791 9.59989 55.3235 9.65205 55.2839 9.71532ZM47.0099 9.50569H44.7554C44.6715 9.50491 44.5902 9.53365 44.5261 9.58669C44.4621 9.63972 44.4196 9.71353 44.4064 9.79467L44.3334 10.2487C44.3334 10.2487 42.5824 8.39043 39.4849 9.64626C37.7084 10.3653 36.8549 11.8508 36.4934 12.9392C36.4934 12.9392 35.3404 16.2468 37.9454 18.0673C37.9454 18.0673 40.3619 19.8183 43.0824 17.9596L43.0354 18.2495C43.0243 18.3177 43.0365 18.3875 43.0699 18.4482C43.1033 18.5089 43.1562 18.5572 43.2204 18.5855C43.2629 18.6051 43.3094 18.6149 43.3564 18.6149H45.6104C45.6941 18.6155 45.7752 18.5867 45.8391 18.5338C45.903 18.4809 45.9455 18.4073 45.9589 18.3264L47.3304 9.87157C47.3416 9.80336 47.3295 9.73345 47.2961 9.67263C47.2626 9.61181 47.2097 9.56347 47.1454 9.53508C47.1027 9.51584 47.0569 9.50582 47.0099 9.50569ZM43.6949 14.1793C43.6062 14.7693 43.3012 15.3075 42.8369 15.6933C42.3705 16.0808 41.777 16.2906 41.1654 16.284C40.9258 16.2866 40.6873 16.2525 40.4584 16.1831C39.4864 15.8794 38.9319 14.9713 39.0914 13.9863C39.1802 13.3946 39.4866 12.855 39.9529 12.469C40.421 12.0812 41.0164 11.8723 41.6294 11.8807C41.8694 11.8783 42.1089 11.9125 42.3379 11.9826C43.3064 12.2843 43.8579 13.1934 43.6979 14.1793H43.6949ZM31.6674 14.4125C32.8868 14.4118 34.0664 13.9867 34.9954 13.213C35.9206 12.4427 36.533 11.3728 36.7214 10.1978C37.1164 7.75271 35.1514 5.61818 32.3674 5.61818H27.8804C27.7967 5.61736 27.7154 5.64596 27.6514 5.69881C27.5874 5.75165 27.5448 5.82522 27.5314 5.90618L25.5314 18.249C25.5202 18.3172 25.5323 18.3872 25.5657 18.448C25.5992 18.5088 25.6521 18.5571 25.7164 18.5855C25.7589 18.6046 25.8054 18.6149 25.8524 18.6149H28.2264C28.3103 18.6157 28.3916 18.587 28.4557 18.5339C28.5197 18.4809 28.5622 18.4071 28.5754 18.3259L29.1634 14.7005C29.1759 14.6191 29.2182 14.5449 29.2824 14.4918C29.3466 14.4387 29.4284 14.4103 29.5124 14.412L31.6674 14.4125ZM33.6544 10.0866C33.5079 10.9908 32.7894 11.6564 31.4139 11.6564H29.6554L30.1884 8.36839H31.9154C33.3379 8.37083 33.8004 9.18683 33.6544 10.089V10.0866Z" fill="#003087"/>
<path id="Vector_3" d="M16.3176 6.25318C16.3711 3.52698 14.0756 1.43555 10.9191 1.43555H4.39008C4.23793 1.43548 4.09076 1.48863 3.97507 1.58543C3.85939 1.68224 3.78279 1.81633 3.75908 1.96355L1.14308 17.9764C1.13137 18.049 1.13586 18.1232 1.15623 18.1939C1.17661 18.2646 1.21238 18.3301 1.26108 18.386C1.30979 18.4419 1.37028 18.4867 1.43838 18.5175C1.50648 18.5482 1.58058 18.5642 1.65558 18.5642H5.52358L4.91908 22.272C4.90737 22.3445 4.91186 22.4187 4.93223 22.4894C4.95261 22.5601 4.98838 22.6256 5.03708 22.6815C5.08579 22.7374 5.14628 22.7822 5.21438 22.813C5.28248 22.8438 5.35658 22.8597 5.43158 22.8597H8.58258C8.73458 22.8597 8.87008 22.8063 8.98608 22.7098C9.10108 22.6129 9.12008 22.4791 9.14408 22.3317L10.0691 17.0008C10.0926 16.8538 10.1691 16.6628 10.2846 16.5658C10.4001 16.4689 10.5011 16.416 10.6536 16.416H12.5816C15.6731 16.416 18.2956 14.2633 18.7751 11.2697C19.1146 9.14494 18.1846 7.21171 16.3176 6.25318Z" fill="#001C64"/>
<path id="Vector_4" d="M6.36384 12.658L5.40034 18.6423L4.79534 22.3961C4.78371 22.4687 4.78827 22.5429 4.80871 22.6135C4.82915 22.6842 4.86498 22.7497 4.91373 22.8055C4.96248 22.8613 5.02301 22.9061 5.09113 22.9368C5.15925 22.9675 5.23336 22.9834 5.30834 22.9834H8.64334C8.79535 22.9833 8.94233 22.9301 9.05783 22.8333C9.17333 22.7365 9.24976 22.6025 9.27334 22.4554L10.1523 16.9995C10.176 16.8524 10.2526 16.7184 10.3681 16.6216C10.4837 16.5248 10.6308 16.4716 10.7828 16.4715H12.7458C15.8373 16.4715 18.4598 14.2626 18.9398 11.2689C19.2798 9.1442 18.1878 7.21048 16.3208 6.25195C16.3158 6.47824 16.2958 6.70403 16.2603 6.92787C15.7808 9.92052 13.1573 12.13 10.0668 12.13H6.99434C6.84224 12.1302 6.69518 12.1835 6.57961 12.2803C6.46403 12.3772 6.38753 12.5108 6.36384 12.658Z" fill="#0070E0"/>
<path id="Vector_5" d="M5.39845 18.6426H1.51845C1.44347 18.6426 1.36938 18.6266 1.3013 18.5959C1.23322 18.5651 1.17275 18.5202 1.12408 18.4644C1.07541 18.4085 1.03969 18.3429 1.01938 18.2722C0.999074 18.2015 0.99466 18.1274 1.00645 18.0548L3.62245 1.80437C3.64614 1.65723 3.72267 1.52321 3.83825 1.42641C3.95383 1.32962 4.10088 1.27641 4.25295 1.27637H10.9209C14.0774 1.27637 16.3729 3.52649 16.3194 6.2522C15.5339 5.84861 14.6109 5.61792 13.5999 5.61792H8.04095C7.8888 5.61785 7.74163 5.671 7.62594 5.7678C7.51025 5.86461 7.43366 5.9987 7.40995 6.14592L6.36295 12.6582L5.39795 18.6426H5.39845Z" fill="#003087"/>
</g>
</svg>
