<svg xmlns="http://www.w3.org/2000/svg" width="40" height="40" viewBox="0 0 40 40" fill="none">
    <path d="M34.8607 34.4747H33.589V27.8078H33.9357C34.1669 27.8078 34.3212 27.6538 34.3212 27.4223V25.1487C34.3212 24.9175 34.1672 24.7632 33.9357 24.7632H32.7795V24.7247V9.96481H33.1263C33.3575 9.96481 33.5118 9.81078 33.5118 9.57932V6.9973C33.5118 6.76612 33.3578 6.61182 33.1263 6.61182H32.7795V5.18627C32.7795 4.95508 32.6255 4.80078 32.394 4.80078H23.0294C22.7982 4.80078 22.6439 4.95481 22.6439 5.18627V6.57362H22.2971C22.066 6.57362 21.9116 6.72766 21.9116 6.95911V9.54113C21.9116 9.77232 22.0657 9.92662 22.2971 9.92662H22.7211V11.0828L17.2487 11.0825V9.8108C17.2487 9.57962 17.0947 9.42532 16.8632 9.42532H14.9364C14.7052 9.42532 14.5509 9.57935 14.5509 9.8108V11.121H13.0095C12.7783 11.121 12.624 11.275 12.624 11.5065V14.0885C12.624 14.3197 12.778 14.474 13.0095 14.474H13.3563L13.3565 34.475H11.2369V32.6253C11.9304 32.4326 12.4702 31.8159 12.4702 31.0452V29.0027C12.4702 28.1164 11.738 27.3841 10.8517 27.3841C9.96537 27.3841 9.23308 28.1164 9.23308 29.0027V31.0452C9.23308 31.8159 9.7726 32.4325 10.4664 32.6253L10.4662 34.475H6.95916V33.3188C7.76859 33.1261 8.34652 32.4325 8.34652 31.5847V30.5057C8.34652 29.5038 7.53709 28.7328 6.57365 28.7328C5.61021 28.7328 4.80078 29.5422 4.80078 30.5057V31.5847C4.80078 32.4325 5.41745 33.1648 6.18814 33.3188V34.475H5.41745C5.18627 34.475 5.03197 34.6291 5.03197 34.8605C5.03197 35.0917 5.186 35.246 5.41745 35.246H34.8217C35.0529 35.246 35.2072 35.092 35.2072 34.8605C35.2072 34.6293 35.0529 34.475 34.8604 34.475L34.8607 34.4747ZM5.57209 31.5844V30.5054C5.57209 29.9274 6.03446 29.5034 6.574 29.5034C7.11354 29.5034 7.57591 29.9658 7.57591 30.5054V31.5844C7.57591 32.1624 7.11354 32.5863 6.574 32.5863C6.03449 32.5866 5.57209 32.124 5.57209 31.5844ZM10.0038 31.0449V29.0024C10.0038 28.54 10.3893 28.1546 10.8516 28.1546C11.314 28.1546 11.6994 28.5401 11.6994 29.0024V31.0449C11.6994 31.5073 11.314 31.8927 10.8516 31.8927C10.3893 31.8927 10.0038 31.5072 10.0038 31.0449ZM23.4149 5.57152H31.9702V6.57343L23.4149 6.5737V5.57152ZM22.6826 9.19413V7.38286H32.7409V9.19413H22.6826ZM23.8388 11.121H23.492V9.96481H32.0088V24.7247V24.7632H23.4913V24.7247V14.5122H23.8381C24.0693 14.5122 24.2236 14.3582 24.2236 14.1268V11.5447C24.2236 11.3136 24.0696 11.1208 23.8384 11.1208L23.8388 11.121ZM15.322 10.196H16.4782V11.121H15.322V10.196ZM13.3951 11.8918H23.4534V13.703H13.3951V11.8918ZM20.5631 34.4748H14.1273V14.5123H22.6827V24.7248V24.7632H20.1391C19.9079 24.7632 19.7536 24.9173 19.7536 25.1487V27.4224C19.7536 27.6536 19.9077 27.8079 20.1391 27.8079H20.5246V34.4748L20.5631 34.4748ZM25.3418 34.4748H23.6074V30.9294H25.3416L25.3418 34.4748ZM32.7796 34.4748H26.1126V30.5439C26.1126 30.3127 25.9586 30.1584 25.7272 30.1584L23.2224 30.1587C22.9912 30.1587 22.8369 30.3127 22.8369 30.5442V34.4748H21.3339V27.8079H32.7796L32.7796 34.4748ZM33.5119 27.0371H20.5632V25.5341H33.5119V27.0371Z" fill="#FFDA0C"/>
    <path d="M25.2644 19.0207C25.4956 19.0207 25.6499 18.8667 25.6499 18.6352V16.9011C25.6499 16.6699 25.4958 16.5156 25.2644 16.5156C25.0332 16.5156 24.8789 16.6697 24.8789 16.9011V18.6352C24.8789 18.8664 25.0332 19.0207 25.2644 19.0207Z" fill="#FFDA0C"/>
    <path d="M27.7683 19.0207C27.9995 19.0207 28.1538 18.8667 28.1538 18.6352V16.9011C28.1538 16.6699 27.9998 16.5156 27.7683 16.5156C27.5371 16.5156 27.3828 16.6697 27.3828 16.9011V18.6352C27.3831 18.8664 27.5371 19.0207 27.7683 19.0207Z" fill="#FFDA0C"/>
    <path d="M30.2761 19.0207C30.5073 19.0207 30.6616 18.8667 30.6616 18.6352V16.9011C30.6616 16.6699 30.5076 16.5156 30.2761 16.5156C30.0449 16.5156 29.8906 16.6697 29.8906 16.9011V18.6352C29.8906 18.8664 30.0834 19.0207 30.2761 19.0207Z" fill="#FFDA0C"/>
    <path d="M25.2644 23.5696C25.4956 23.5696 25.6499 23.4155 25.6499 23.1841V21.4499C25.6499 21.2188 25.4958 21.0645 25.2644 21.0645C25.0332 21.0645 24.8789 21.2185 24.8789 21.4499V23.1841C24.8789 23.4155 25.0332 23.5696 25.2644 23.5696Z" fill="#FFDA0C"/>
    <path d="M27.7683 23.5696C27.9995 23.5696 28.1538 23.4155 28.1538 23.1841V21.4499C28.1538 21.2188 27.9998 21.0645 27.7683 21.0645C27.5371 21.0645 27.3828 21.2185 27.3828 21.4499V23.1841C27.3831 23.4155 27.5371 23.5696 27.7683 23.5696Z" fill="#FFDA0C"/>
    <path d="M30.2761 23.5696C30.5073 23.5696 30.6616 23.4155 30.6616 23.1841V21.4499C30.6616 21.2188 30.5076 21.0645 30.2761 21.0645C30.0449 21.0645 29.8906 21.2185 29.8906 21.4499V23.1841C29.8906 23.4155 30.0834 23.5696 30.2761 23.5696Z" fill="#FFDA0C"/>
    <path d="M25.2644 14.5129C25.4956 14.5129 25.6499 14.3589 25.6499 14.1274V12.3933C25.6499 12.1621 25.4958 12.0078 25.2644 12.0078C25.0332 12.0078 24.8789 12.1618 24.8789 12.3933V14.1274C24.8789 14.3202 25.0332 14.5129 25.2644 14.5129Z" fill="#FFDA0C"/>
    <path d="M27.7683 14.5129C27.9995 14.5129 28.1538 14.3589 28.1538 14.1274V12.3933C28.1538 12.1621 27.9998 12.0078 27.7683 12.0078C27.5371 12.0078 27.3828 12.1618 27.3828 12.3933V14.1274C27.3831 14.3202 27.5371 14.5129 27.7683 14.5129Z" fill="#FFDA0C"/>
    <path d="M30.2761 14.5129C30.5073 14.5129 30.6616 14.3589 30.6616 14.1274V12.3933C30.6616 12.1621 30.5076 12.0078 30.2761 12.0078C30.0449 12.0078 29.8906 12.1618 29.8906 12.3933V14.1274C29.8906 14.3202 30.0834 14.5129 30.2761 14.5129Z" fill="#FFDA0C"/>
    <path d="M15.9011 16.5156C15.6699 16.5156 15.5156 16.6697 15.5156 16.9011V18.6352C15.5156 18.8664 15.6697 19.0207 15.9011 19.0207C16.1323 19.0207 16.2866 18.8667 16.2866 18.6352V16.9011C16.2866 16.7084 16.1326 16.5156 15.9011 16.5156Z" fill="#FFDA0C"/>
    <path d="M18.4441 16.5156C18.2129 16.5156 18.0586 16.6697 18.0586 16.9011V18.6352C18.0586 18.8664 18.2126 19.0207 18.4441 19.0207C18.6753 19.0207 18.8296 18.8667 18.8296 18.6352V16.9011C18.8296 16.7084 18.6368 16.5156 18.4441 16.5156Z" fill="#FFDA0C"/>
    <path d="M20.948 19.0207C21.1792 19.0207 21.3335 18.8667 21.3335 18.6352V16.9011C21.3335 16.6699 21.1794 16.5156 20.948 16.5156C20.7168 16.5156 20.5625 16.6697 20.5625 16.9011V18.6352C20.5625 18.8664 20.7165 19.0207 20.948 19.0207Z" fill="#FFDA0C"/>
    <path d="M15.9011 21.0645C15.6699 21.0645 15.5156 21.2185 15.5156 21.4499V23.1841C15.5156 23.4152 15.6697 23.5696 15.9011 23.5696C16.1323 23.5696 16.2866 23.4155 16.2866 23.1841V21.4499C16.2866 21.2572 16.1326 21.0645 15.9011 21.0645Z" fill="#FFDA0C"/>
    <path d="M18.4441 21.0645C18.2129 21.0645 18.0586 21.2185 18.0586 21.4499V23.1841C18.0586 23.4152 18.2126 23.5696 18.4441 23.5696C18.6753 23.5696 18.8296 23.4155 18.8296 23.1841V21.4499C18.8296 21.2572 18.6368 21.0645 18.4441 21.0645Z" fill="#FFDA0C"/>
    <path d="M20.948 23.5696C21.1792 23.5696 21.3335 23.4155 21.3335 23.1841V21.4499C21.3335 21.2188 21.1794 21.0645 20.948 21.0645C20.7168 21.0645 20.5625 21.2185 20.5625 21.4499V23.1841C20.5625 23.4155 20.7165 23.5696 20.948 23.5696Z" fill="#FFDA0C"/>
    <path d="M15.9011 25.6113C15.6699 25.6113 15.5156 25.7654 15.5156 25.9968V27.7309C15.5156 27.9621 15.6697 28.1164 15.9011 28.1164C16.1323 28.1164 16.2866 27.9624 16.2866 27.7309V25.9968C16.2866 25.8041 16.1326 25.6113 15.9011 25.6113Z" fill="#FFDA0C"/>
    <path d="M18.4441 25.6113C18.2129 25.6113 18.0586 25.7654 18.0586 25.9968V27.7309C18.0586 27.9621 18.2126 28.1164 18.4441 28.1164C18.6753 28.1164 18.8296 27.9624 18.8296 27.7309V25.9968C18.8296 25.8041 18.6368 25.6113 18.4441 25.6113Z" fill="#FFDA0C"/>
    <path d="M15.9011 30.1582C15.6699 30.1582 15.5156 30.3122 15.5156 30.5437V32.2778C15.5156 32.509 15.6697 32.6633 15.9011 32.6633C16.1323 32.6633 16.2866 32.5093 16.2866 32.2778V30.5437C16.2866 30.3509 16.1326 30.1582 15.9011 30.1582Z" fill="#FFDA0C"/>
    <path d="M18.4441 30.1582C18.2129 30.1582 18.0586 30.3122 18.0586 30.5437V32.2778C18.0586 32.509 18.2126 32.6633 18.4441 32.6633C18.6753 32.6633 18.8296 32.5093 18.8296 32.2778V30.5437C18.8296 30.3509 18.6368 30.1582 18.4441 30.1582Z" fill="#FFDA0C"/>
    <path d="M28.1941 32.6633C28.4253 32.6633 28.5796 32.5093 28.5796 32.2778V30.5437C28.5796 30.3125 28.4255 30.1582 28.1941 30.1582C27.9629 30.1582 27.8086 30.3122 27.8086 30.5437V32.2778C27.8089 32.5093 28.0013 32.6633 28.1941 32.6633Z" fill="#FFDA0C"/>
    <path d="M30.698 32.6633C30.9292 32.6633 31.0835 32.5093 31.0835 32.2778V30.5437C31.0835 30.3125 30.9294 30.1582 30.698 30.1582C30.4668 30.1582 30.3125 30.3122 30.3125 30.5437V32.2778C30.3125 32.5093 30.5052 32.6633 30.698 32.6633Z" fill="#FFDA0C"/>
</svg>