<svg xmlns="http://www.w3.org/2000/svg" width="24" height="25" viewBox="0 0 24 25" fill="none">
    <g clip-path="url(#clip0_1027_88)">
        <path d="M24 12.2969C24 5.66945 18.6274 0.296875 12 0.296875C5.37258 0.296875 0 5.66945 0 12.2969C0 18.2863 4.3882 23.2509 10.125 24.1511V15.7656H7.07812V12.2969H10.125V9.65313C10.125 6.64563 11.9166 4.98438 14.6576 4.98438C15.9701 4.98438 17.3438 5.21875 17.3438 5.21875V8.17188H15.8306C14.34 8.17188 13.875 9.09695 13.875 10.0469V12.2969H17.2031L16.6711 15.7656H13.875V24.1511C19.6118 23.2509 24 18.2863 24 12.2969Z" fill="white"/>
    </g>
    <defs>
        <clipPath id="clip0_1027_88">
            <rect width="24" height="24" fill="white" transform="translate(0 0.296875)"/>
        </clipPath>
    </defs>
</svg>