<svg xmlns="http://www.w3.org/2000/svg" width="40" height="40" viewBox="0 0 40 40" fill="none">
    <path d="M35 12.0198C35 11.3302 34.7396 10.6866 34.2687 10.2087C33.7657 9.69441 33.1004 9.44716 32.4398 9.46253L32.8698 9.02283C33.3409 8.53677 33.6002 7.89398 33.6002 7.21296C33.6002 6.53219 33.3409 5.88939 32.8691 5.40257C32.3982 4.91874 31.7689 4.65191 31.098 4.65191C30.427 4.65191 29.7978 4.9185 29.3271 5.40207L28.1348 6.6212C28.1505 5.94494 27.9085 5.26392 27.4051 4.74911C26.4284 3.75046 24.8396 3.75046 23.8641 4.74811L12.6983 16.0589L14.0621 13.1219C14.6288 11.9012 14.2951 10.0668 13.0046 9.44015L12.6598 9.26631C12.5999 9.23605 12.5381 9.20158 12.4748 9.16686C12.1035 8.96277 11.6423 8.70857 11.1576 8.871C10.8486 8.97491 10.5933 9.23481 10.3991 9.64478L6.70958 15.6571C6.70812 15.6596 6.70812 15.6621 6.70691 15.6646C6.70546 15.6668 6.70352 15.6678 6.70206 15.6703C4.49349 19.6335 2.8795 24.6321 4.97384 26.7741L12.2592 34.1614C13.322 35.2389 14.7444 35.8103 16.1765 35.8103C16.9408 35.8103 17.7081 35.6474 18.4239 35.3119C19.4637 34.8248 20.4741 34.1088 21.4336 33.1868L22.4205 34.1961C23.2016 35.0118 24.0415 35.5717 24.9177 35.8606C25.2014 35.9544 25.4924 36 25.7804 36C26.5098 36 27.2221 35.7079 27.7606 35.1618L31.9706 30.8926C33.5036 29.3248 31.6467 25.6564 31.0411 24.5694C31.039 24.566 31.0358 24.564 31.0339 24.561C31.0331 24.5595 31.0331 24.5583 31.0324 24.557L30.5899 23.8354L33.8176 20.5346C34.759 19.5672 34.7316 17.9688 33.7565 16.9714C33.2817 16.4861 32.6282 16.2079 31.9628 16.2079C31.9565 16.2079 31.9502 16.2086 31.9441 16.2088L34.2677 13.8325C34.7398 13.3532 35 12.7097 35 12.0198ZM18.1343 34.6655C16.3378 35.5077 14.1735 35.1017 12.7484 33.6564L5.46434 26.2703C3.64692 24.4116 5.31739 19.5941 7.30169 16.03L10.9991 10.0052C11.0064 9.99356 11.0129 9.9814 11.0185 9.96851C11.1291 9.73068 11.2489 9.58833 11.3747 9.54618C11.5758 9.47897 11.8784 9.64537 12.1453 9.79219C12.2157 9.83063 12.2838 9.86832 12.3512 9.90279L12.7021 10.0799C13.1126 10.2792 13.4157 10.6907 13.5561 11.2382C13.6924 11.7689 13.6466 12.3592 13.4342 12.8165L11.2183 17.5878C11.1359 17.7652 11.2101 17.9774 11.3832 18.0618C11.4315 18.0853 11.4824 18.0962 11.5324 18.0962C11.5365 18.0962 11.5404 18.0947 11.5445 18.0945C12.8821 19.3153 13.4301 21.1456 13.1255 23.4083C12.9909 24.4094 12.6648 25.3325 12.1827 26.0769C12.0767 26.2403 12.1204 26.4613 12.2807 26.5697C12.3398 26.6096 12.4065 26.6287 12.4722 26.6287C12.5847 26.6287 12.6958 26.5729 12.7625 26.4695C13.3018 25.6365 13.6653 24.6112 13.8141 23.5052C14.2215 20.4775 13.1754 18.679 12.1083 17.6573L24.3548 5.25139C25.0597 4.53 26.2081 4.53 26.9138 5.25139C27.6191 5.97279 27.6191 7.14704 26.9138 7.8685L24.0699 10.7769L17.761 17.2265C17.625 17.3652 17.625 17.5904 17.761 17.7292C17.795 17.764 17.8348 17.7905 17.8772 17.8074C18.0028 17.8597 18.1522 17.8336 18.2543 17.7295L24.5619 11.2786L29.8195 5.90333C30.1594 5.55415 30.6134 5.36221 31.0981 5.36221C31.5826 5.36221 32.037 5.55465 32.376 5.90308C32.717 6.25548 32.9052 6.72047 32.9052 7.21249C32.9052 7.70501 32.717 8.17 32.377 8.52089L30.7271 10.2082L22.0802 19.0515L21.5383 18.5022C21.2487 18.2061 20.8624 18.0429 20.4505 18.0429C20.0385 18.0429 19.652 18.2059 19.3627 18.502C19.1481 18.7214 19.006 18.9965 18.9468 19.297L18.5225 18.863C17.9226 18.2495 16.9466 18.2497 16.3466 18.863C16.0561 19.1601 15.8959 19.5557 15.8959 19.9758C15.8959 20.3961 16.0557 20.7914 16.3466 21.0882L16.3488 21.0905C16.0561 21.1512 15.7877 21.297 15.5729 21.5168C15.2824 21.8139 15.1221 22.2089 15.1221 22.6295C15.1221 23.0501 15.2819 23.4452 15.5726 23.742L16.6279 24.8237C16.3374 24.8892 16.0651 25.0362 15.8534 25.2527C15.2561 25.8638 15.2418 26.8476 15.8231 27.447L20.9422 32.6824C20.0426 33.5444 19.0998 34.2118 18.1349 34.6644L18.1343 34.6655ZM31.4802 30.3886L27.2711 34.6566C26.7052 35.2305 25.8848 35.4321 25.1307 35.1838C24.3633 34.9306 23.6181 34.4309 22.9146 33.6958L16.3152 26.9466C16.0037 26.6254 16.017 26.092 16.3443 25.7567C16.6492 25.4445 17.2016 25.4189 17.494 25.7126C17.5035 25.7218 17.5134 25.7307 17.5238 25.7394L21.4933 29.803L21.5656 29.8769C21.6335 29.9464 21.7225 29.9811 21.8115 29.9811C21.9005 29.9811 21.9895 29.9463 22.0574 29.8769C22.1934 29.7378 22.1934 29.5131 22.0574 29.3742L17.9981 25.2191C17.9884 25.2092 17.9775 25.1995 17.9666 25.1903L16.0635 23.2403C15.9042 23.0774 15.8164 22.8609 15.8164 22.6305C15.8164 22.4001 15.904 22.1836 16.0635 22.0207C16.38 21.6971 16.9399 21.6971 17.2564 22.0207L23.0033 27.8982C23.1393 28.0373 23.359 28.0373 23.4948 27.8982C23.6309 27.759 23.6309 27.5343 23.4948 27.3955L23.3736 27.2715L16.8375 20.5863C16.6782 20.4234 16.5904 20.2069 16.5904 19.9765C16.5904 19.7461 16.678 19.5296 16.8375 19.3664C17.1663 19.0304 17.701 19.0304 18.0303 19.3664L24.4143 25.8992C24.5499 26.0383 24.77 26.0388 24.9058 25.9C25.0419 25.7613 25.0421 25.5361 24.9066 25.3973L19.8531 20.2261C19.696 20.0654 19.6097 19.8489 19.6097 19.616C19.6097 19.3832 19.6962 19.1667 19.8531 19.0062C20.1696 18.6826 20.728 18.6813 21.0469 19.0072L27.9548 26.0053C27.9601 26.0108 27.9667 26.012 27.9717 26.017C28.0389 26.0996 28.1359 26.1474 28.2373 26.1474C28.2943 26.1474 28.3517 26.1333 28.4048 26.103C28.5726 26.0081 28.634 25.7921 28.5411 25.6199L27.3292 23.0051C27.2271 22.7851 27.2055 22.4994 27.2712 22.2415C27.3088 22.0932 27.4092 21.8266 27.6616 21.7039L27.9677 21.5456C28.0452 21.5022 28.2281 21.4006 28.2763 21.4172C28.2875 21.4206 28.3299 21.4564 28.3816 21.568C28.3874 21.5808 28.3942 21.5928 28.4015 21.6049L30.442 24.933C30.4427 24.934 30.4437 24.9345 30.4444 24.9355C31.5948 27.0042 32.3595 29.4894 31.4802 30.3886ZM31.9628 16.9186C32.4449 16.9186 32.9194 17.121 33.265 17.4739C33.9697 18.1946 33.9968 19.3426 33.3254 20.0322L30.2108 23.2175L29.0011 21.2444C28.8745 20.9813 28.7036 20.8124 28.4919 20.742C28.157 20.6306 27.8553 20.7995 27.6349 20.9225L27.3599 21.0644C26.9925 21.2425 26.7151 21.6065 26.599 22.0633C26.4918 22.4841 26.5294 22.939 26.7018 23.3105L27.0728 24.1117L25.6378 22.6578L30.7634 17.4157C31.077 17.095 31.5028 16.9186 31.9628 16.9186ZM25.1437 22.1573L22.5733 19.5531L31.2194 10.7107C31.9247 9.98997 33.0722 9.99048 33.7779 10.7129C34.1176 11.0571 34.3045 11.5213 34.3045 12.0198C34.3045 12.5183 34.1176 12.9825 33.7769 13.3282L25.1437 22.1573Z" fill="#262626"/>
</svg>