<svg xmlns="http://www.w3.org/2000/svg" width="40" height="40" viewBox="0 0 40 40" fill="none">
    <path d="M22.7868 29.0393L22.688 27.101C22.5684 25.4521 22.6192 23.7951 22.8397 22.1565L22.9517 21.3356C23.1028 20.2041 23.6878 19.1758 24.5834 18.468L30.4212 13.7903C30.6077 13.6419 30.8779 13.6664 31.0343 13.8465C31.5439 14.5098 31.8302 15.3176 31.8518 16.1539C31.871 16.8436 31.7073 17.5259 31.3772 18.1317L31.2652 18.3229L31.1961 18.4383L31.1597 18.491L30.3158 19.1503L27.6459 21.2765L27.1514 20.66L29.8214 18.5305L30.5631 17.9405L30.5894 17.901L30.6652 17.7328C31.1952 16.7657 31.1726 15.5901 30.6059 14.6443L25.0614 19.0678C24.3349 19.6544 23.8625 20.4987 23.7429 21.4247L23.6309 22.2456H23.6307C23.4156 23.8372 23.3661 25.4466 23.4825 27.0484L23.5847 29.0064L22.7868 29.0393Z" fill="#262626"/>
    <path d="M30.6428 28.9822L29.8516 28.9427L29.9439 27.1726C29.9509 27.0412 29.9968 26.9151 30.0758 26.81C30.6033 26.1112 32.9734 22.8906 34.2159 20.962C35.2544 19.3336 36.2531 17.6229 37.1827 15.8791C37.6508 13.8002 38.1156 11.7169 38.577 9.62952L39.1901 6.90668C39.1975 6.87187 39.1975 6.83594 39.1901 6.80113C39.0319 6.69225 38.1058 6.89663 37.3739 7.41764C36.5267 8.01764 36.0554 9.06587 35.8609 9.63285V9.63263C35.7575 9.90306 35.6835 10.1838 35.64 10.47L35.6201 10.5524L33.6851 16.3307L33.6059 16.3999L33.3917 16.5813L33.3027 16.6571L33.128 16.8055C32.5447 17.3129 31.8526 17.8701 31.3548 18.3052L31.2921 18.3578L31.0317 18.0611L30.7878 17.748L30.8603 17.6853C31.3449 17.2766 32.0404 16.6964 32.6205 16.2218L32.8051 16.067L32.8941 15.9911L33.0162 15.8889L34.8688 10.3511C34.9206 10.0135 35.0067 9.68216 35.1259 9.36223C35.3566 8.70288 35.9005 7.49643 36.9256 6.7679C37.5618 6.3328 39.1736 5.57459 39.7969 6.30313C39.96 6.50461 40.0296 6.7659 39.9879 7.02182V7.07136L39.3682 9.82053C38.8956 11.917 38.4244 14.0136 37.954 16.1101L37.9177 16.209C36.9682 17.9891 35.9398 19.7295 34.8916 21.3909C33.659 23.3094 31.3085 26.4903 30.7318 27.2521L30.6428 28.9822Z" fill="#262626"/>
    <path d="M32.4723 16.5508L32.2647 11.3789C32.2357 10.6363 32.4156 9.9004 32.784 9.25465C33.1521 8.60912 33.6941 8.07967 34.3479 7.72643L35.0697 7.33752H35.0699C35.2302 7.24269 35.4281 7.23644 35.5941 7.32101C35.7683 7.40736 35.8821 7.58162 35.8906 7.77596V9.52307H35.0994L35.0996 8.22088L34.7238 8.42526C34.2002 8.70797 33.7662 9.13168 33.4714 9.64845C33.1764 10.1654 33.0325 10.7545 33.0557 11.3491L33.2635 16.5146L32.4723 16.5508Z" fill="#262626"/>
    <path d="M17.219 29.0377L16.4278 29.0014L16.53 27.0533C16.6442 25.4492 16.5933 23.8375 16.3782 22.244L16.2662 21.4231C16.1415 20.4958 15.6633 19.6526 14.9312 19.0695L9.38674 14.6427C8.81955 15.5869 8.79566 16.7613 9.32426 17.7279L9.38362 17.8368L9.44297 17.9291L12.8678 20.6486L12.3733 21.2682L8.85947 18.4664L8.8231 18.4138L8.71109 18.2357L8.63858 18.1072V18.1069C8.278 17.4447 8.11735 16.6921 8.17581 15.9403C8.23426 15.1884 8.50961 14.4697 8.96813 13.8713C9.11317 13.6852 9.37869 13.6461 9.57144 13.7822L15.4258 18.4499C16.3194 19.1587 16.9033 20.1869 17.0542 21.3177L17.153 22.1351C17.3788 23.7798 17.4351 25.4434 17.3213 27.0995L17.219 29.0377Z" fill="#262626"/>
    <path d="M9.36837 29.0381L9.27287 27.2515C8.70255 26.4933 6.35233 23.2959 5.12269 21.3875C4.05481 19.7162 3.03623 17.9725 2.09659 16.2055L2.06022 16.1067L0.0100889 7.01872C-0.0287356 6.75989 0.0455662 6.49682 0.214474 6.29688C0.83098 5.57818 2.44596 6.33303 3.0888 6.78799C4.11384 7.51651 4.65449 8.72633 4.88857 9.38231C5.00326 9.69781 5.08827 10.0234 5.14249 10.3547L6.99178 15.8925L7.21603 16.0804L7.38739 16.2221L8.0994 16.8154L9.15745 17.6988L9.23979 17.7615L8.71231 18.3581L8.66612 18.3186L7.59173 17.4221L6.88309 16.8321L6.70503 16.6871L6.30942 16.3575L4.36131 10.4929C4.3158 10.2051 4.24194 9.92239 4.14042 9.64908C3.96571 9.191 3.5074 8.0602 2.6274 7.4341C1.89556 6.91332 0.97917 6.70558 0.804437 6.82096C0.801536 6.85376 0.801536 6.88679 0.804437 6.91981L2.82195 15.8924C3.74502 17.6263 4.74378 19.3337 5.7887 20.9752C7.02148 22.9068 9.41474 26.1275 9.92883 26.8233C10.0078 26.9284 10.0538 27.0547 10.0607 27.1859L10.1562 29.0153L9.36837 29.0381Z" fill="#262626"/>
    <path d="M7.53101 16.5518L6.73977 16.5188L6.94751 11.3567V11.3569C6.97227 10.7643 6.83103 10.1768 6.53985 9.66027C6.24867 9.1435 5.81893 8.71869 5.29924 8.43308L4.92015 8.2287V9.5242H4.12891L4.12913 7.79029C4.13515 7.59372 4.24583 7.41521 4.4192 7.32217C4.58409 7.24363 4.77732 7.25345 4.93328 7.3485L5.65843 7.73741V7.73764C6.31156 8.09152 6.85261 8.62124 7.22012 9.26676C7.58784 9.91229 7.76723 10.6477 7.73845 11.3898L7.53101 16.5518Z" fill="#262626"/>
    <path d="M18.4691 33.8241C18.2507 33.8241 18.0737 33.6472 18.0737 33.4287V29.3577H7.73653V33.4287C7.73653 33.6472 7.55936 33.8241 7.34092 33.8241C7.12248 33.8241 6.94531 33.6472 6.94531 33.4287V29.1996C6.94531 29.0293 7.01381 28.8662 7.13542 28.7473C7.2568 28.6281 7.42124 28.563 7.59149 28.5665H18.2383C18.4063 28.5665 18.5672 28.6333 18.6859 28.752C18.8046 28.8707 18.8713 29.0315 18.8713 29.1996V33.4287C18.8713 33.5347 18.8287 33.6363 18.753 33.7108C18.6774 33.7851 18.5752 33.8259 18.469 33.8241L18.4691 33.8241Z" fill="#262626"/>
    <path d="M32.6637 33.824C32.4452 33.824 32.2681 33.647 32.2681 33.4286V29.3576H21.924V33.4286C21.924 33.647 21.7469 33.824 21.5284 33.824C21.31 33.824 21.1328 33.647 21.1328 33.4286V29.1994C21.1328 29.0314 21.1995 28.8705 21.3182 28.7518C21.4369 28.6331 21.5978 28.5664 21.7658 28.5664H32.4263C32.5941 28.5664 32.755 28.6331 32.8737 28.7518C32.9924 28.8705 33.0591 29.0314 33.0591 29.1994V33.4286C33.0591 33.5335 33.0174 33.6341 32.9433 33.7082C32.869 33.7825 32.7684 33.824 32.6635 33.824L32.6637 33.824Z" fill="#262626"/>
</svg>