<svg xmlns="http://www.w3.org/2000/svg" width="40" height="40" viewBox="0 0 40 40" fill="none">
    <path d="M16.9193 21.787H16.8569C16.6571 21.7533 16.5226 21.5644 16.5558 21.3647C16.8879 19.4618 18.0984 17.8274 19.8218 16.955C21.5452 16.0827 23.579 16.0745 25.3093 16.9331C27.0393 17.792 28.2629 19.4168 28.6102 21.3168C28.6447 21.5197 28.5081 21.712 28.3052 21.7467C28.1026 21.7811 27.91 21.6446 27.8756 21.4417C27.5637 19.7788 26.4886 18.3589 24.9726 17.6075C23.4568 16.8561 21.6759 16.8603 20.1635 17.6191C18.6511 18.3778 17.5832 19.8029 17.2791 21.4675C17.2555 21.6488 17.1021 21.7848 16.9193 21.787Z" fill="#262626"/>
    <path d="M24.9691 8.52351H24.9359C24.8385 8.51416 24.7485 8.4662 24.6866 8.39045C24.6243 8.31445 24.5953 8.2168 24.6054 8.1194C24.6204 7.97774 24.6278 7.83558 24.6275 7.69341C24.6275 5.51184 23.1988 3.61649 22.6001 2.91873C21.9978 3.61649 20.5654 5.51158 20.5654 7.69341V8.1194C20.5856 8.32232 20.4375 8.50309 20.2348 8.52351C20.0319 8.54368 19.8511 8.39562 19.8307 8.19295C19.8307 8.03136 19.8086 7.86239 19.8086 7.69341C19.8344 4.63745 22.2327 2.20962 22.3358 2.1068C22.4789 1.9644 22.7104 1.9644 22.8535 2.1068C22.9563 2.20961 25.3585 4.63739 25.3585 7.69341C25.3593 7.86017 25.3507 8.02693 25.3327 8.19295C25.314 8.37987 25.1571 8.52253 24.9691 8.52351Z" fill="#262626"/>
    <path d="M22.5968 13.3868C22.4217 13.3883 22.27 13.266 22.2343 13.0946C22.1986 12.9232 22.2889 12.7502 22.45 12.6816C22.4962 12.662 22.5464 12.6519 22.5968 12.6524C22.6942 12.6524 22.7877 12.691 22.8566 12.7598C22.9254 12.8287 22.964 12.9222 22.964 13.0196C22.964 13.117 22.9254 13.2104 22.8566 13.2793C22.7877 13.3482 22.6942 13.3868 22.5968 13.3868Z" fill="#262626"/>
    <path d="M22.5977 13.3866C22.3948 13.3866 22.2305 13.2223 22.2305 13.0194C22.2305 12.9055 22.2305 10.2096 23.9605 8.49437C25.6719 6.80492 28.3274 6.77539 28.4743 6.77539C28.5717 6.77539 28.6652 6.81425 28.734 6.88312C28.8029 6.95198 28.8418 7.04544 28.8418 7.14284C28.8418 7.25672 28.8417 9.95261 27.1191 11.6605C25.3965 13.3684 22.7335 13.3866 22.5977 13.3866ZM24.4746 9.01578C23.3361 10.1543 23.0532 11.8659 22.9833 12.6298C23.7473 12.5599 25.4588 12.2626 26.5973 11.1385C27.7359 10.0145 28.015 8.29213 28.0664 7.52819C27.3062 7.59804 25.5909 7.8772 24.4561 9.01571L24.4746 9.01578Z" fill="#262626"/>
    <path d="M22.5915 13.3864C22.4447 13.3864 19.7706 13.3606 18.0701 11.6564C16.3696 9.95218 16.3438 7.24888 16.3438 7.13869V7.13894C16.3438 6.93602 16.5083 6.77148 16.7112 6.77148C16.858 6.77148 19.5283 6.79731 21.2289 8.49412C22.9405 10.2094 22.9552 12.9016 22.9552 13.0192H22.955C22.955 13.1166 22.9164 13.21 22.8475 13.2789C22.7786 13.3478 22.6852 13.3864 22.5878 13.3864L22.5915 13.3864ZM17.1006 7.53568C17.1704 8.29591 17.4678 10.0112 18.5697 11.146C19.6715 12.2809 21.4234 12.5674 22.1837 12.6373C22.1138 11.8733 21.8165 10.1618 20.6924 9.02327C19.5724 7.87713 17.8645 7.60532 17.1005 7.53574L17.1006 7.53568Z" fill="#262626"/>
    <path d="M22.5938 16.99C22.3909 16.99 22.2266 16.8255 22.2266 16.6228V13.0196C22.2266 12.8166 22.3909 12.6523 22.5938 12.6523C22.7967 12.6523 22.961 12.8166 22.961 13.0196V16.6154C22.9629 16.714 22.9253 16.8092 22.8562 16.8798C22.7871 16.9504 22.6924 16.99 22.5938 16.99Z" fill="#262626"/>
    <path d="M14.8694 32.136C14.7718 32.1365 14.6781 32.0981 14.6087 32.0295C14.5391 31.9607 14.5 31.8667 14.5 31.7688C14.5 31.6707 14.5391 31.577 14.6087 31.5079C15.9408 30.1772 17.6959 29.3538 19.5708 29.1795L23.5853 28.8122V28.812C25.2878 28.6595 26.8833 27.9165 28.0956 26.7111L36.0914 18.7153C35.4662 18.217 34.6791 17.9666 33.8811 18.0121C33.0829 18.0574 32.3293 18.3953 31.7647 18.9612L25.5024 24.1289C25.4269 24.1912 25.33 24.2204 25.2329 24.2108C25.1357 24.2012 25.0464 24.1533 24.9847 24.0775C24.8578 23.9211 24.8809 23.6916 25.0361 23.5635L31.2801 18.4213H31.2799C32.0205 17.6825 33.0254 17.2698 34.0715 17.2754C35.1298 17.2725 36.1456 17.6928 36.8921 18.4435C36.9617 18.5124 37.0008 18.6063 37.0008 18.7042C37.0008 18.8021 36.9617 18.896 36.8921 18.9649L28.6098 27.2327C27.2784 28.5582 25.5258 29.3767 23.6551 29.5466L19.637 29.9139C17.9332 30.0698 16.3385 30.8185 15.1301 32.0296C15.061 32.0982 14.9671 32.1365 14.8694 32.136Z" fill="#262626"/>
    <path d="M9.50814 26.7639C9.41 26.7634 9.31605 26.7238 9.24743 26.6537C9.10502 26.5103 9.10502 26.2789 9.24743 26.1357L11.6238 23.7594C13.4006 21.9749 15.8053 20.9572 18.3232 20.924L23.9464 20.8323V20.832C24.6482 20.8335 25.298 21.2012 25.6603 21.8021C26.0226 22.4029 26.0444 23.1494 25.7181 23.7704C25.3917 24.3915 24.7645 24.7968 24.064 24.8391L19.5134 25.0265C19.3105 25.0356 19.1386 24.8787 19.1295 24.6758C19.1204 24.4729 19.2775 24.3012 19.4802 24.2919L24.0308 24.1008L24.031 24.101C24.4701 24.0683 24.8612 23.8105 25.0643 23.42C25.2674 23.0294 25.2539 22.5614 25.0284 22.1831C24.8031 21.8048 24.3977 21.5702 23.9575 21.563L18.3232 21.6584C15.9974 21.6899 13.7763 22.6297 12.1345 24.2774L9.75814 26.6538C9.69222 26.7212 9.6027 26.7605 9.50825 26.764L9.50814 26.7639Z" fill="#262626"/>
    <path d="M12.4005 37.2608C12.3028 37.2613 12.2089 37.223 12.1398 37.1543L4.1068 29.122C3.9644 28.9786 3.9644 28.7474 4.1068 28.604L6.62266 26.0882H6.6229C7.03192 25.6789 7.58682 25.4492 8.16552 25.4492C8.74401 25.4492 9.29888 25.6789 9.70814 26.0882L15.1735 31.5535C15.5825 31.9625 15.8123 32.5174 15.8123 33.0961C15.8123 33.6746 15.5825 34.2295 15.1735 34.6388L12.6576 37.1546H12.6574C12.589 37.2225 12.4968 37.2606 12.4004 37.2611L12.4005 37.2608ZM4.88571 28.8646L12.4005 36.3756L14.6519 34.1204C14.9178 33.8462 15.0666 33.4795 15.0666 33.0975C15.0666 32.7156 14.9178 32.3488 14.6519 32.0746L9.19031 26.6093C8.91607 26.3424 8.54839 26.1929 8.16569 26.1929C7.78275 26.1929 7.41529 26.3424 7.14083 26.6093L4.88571 28.8646Z" fill="#262626"/>
</svg>