<svg xmlns="http://www.w3.org/2000/svg" width="24" height="25" viewBox="0 0 24 25" fill="none">
    <g clip-path="url(#clip0_1027_90)">
        <path d="M12 2.45781C15.2063 2.45781 15.5859 2.47187 16.8469 2.52812C18.0188 2.57969 18.6516 2.77656 19.0734 2.94063C19.6313 3.15625 20.0344 3.41875 20.4516 3.83594C20.8734 4.25781 21.1313 4.65625 21.3469 5.21406C21.5109 5.63594 21.7078 6.27344 21.7594 7.44062C21.8156 8.70625 21.8297 9.08594 21.8297 12.2875C21.8297 15.4938 21.8156 15.8734 21.7594 17.1344C21.7078 18.3063 21.5109 18.9391 21.3469 19.3609C21.1313 19.9188 20.8687 20.3219 20.4516 20.7391C20.0297 21.1609 19.6313 21.4188 19.0734 21.6344C18.6516 21.7984 18.0141 21.9953 16.8469 22.0469C15.5813 22.1031 15.2016 22.1172 12 22.1172C8.79375 22.1172 8.41406 22.1031 7.15313 22.0469C5.98125 21.9953 5.34844 21.7984 4.92656 21.6344C4.36875 21.4188 3.96563 21.1562 3.54844 20.7391C3.12656 20.3172 2.86875 19.9188 2.65313 19.3609C2.48906 18.9391 2.29219 18.3016 2.24063 17.1344C2.18438 15.8688 2.17031 15.4891 2.17031 12.2875C2.17031 9.08125 2.18438 8.70156 2.24063 7.44062C2.29219 6.26875 2.48906 5.63594 2.65313 5.21406C2.86875 4.65625 3.13125 4.25312 3.54844 3.83594C3.97031 3.41406 4.36875 3.15625 4.92656 2.94063C5.34844 2.77656 5.98594 2.57969 7.15313 2.52812C8.41406 2.47187 8.79375 2.45781 12 2.45781ZM12 0.296875C8.74219 0.296875 8.33438 0.310937 7.05469 0.367188C5.77969 0.423438 4.90313 0.629687 4.14375 0.925C3.35156 1.23437 2.68125 1.64219 2.01563 2.3125C1.34531 2.97813 0.9375 3.64844 0.628125 4.43594C0.332812 5.2 0.126563 6.07187 0.0703125 7.34687C0.0140625 8.63125 0 9.03906 0 12.2969C0 15.5547 0.0140625 15.9625 0.0703125 17.2422C0.126563 18.5172 0.332812 19.3938 0.628125 20.1531C0.9375 20.9453 1.34531 21.6156 2.01563 22.2812C2.68125 22.9469 3.35156 23.3594 4.13906 23.6641C4.90313 23.9594 5.775 24.1656 7.05 24.2219C8.32969 24.2781 8.7375 24.2922 11.9953 24.2922C15.2531 24.2922 15.6609 24.2781 16.9406 24.2219C18.2156 24.1656 19.0922 23.9594 19.8516 23.6641C20.6391 23.3594 21.3094 22.9469 21.975 22.2812C22.6406 21.6156 23.0531 20.9453 23.3578 20.1578C23.6531 19.3938 23.8594 18.5219 23.9156 17.2469C23.9719 15.9672 23.9859 15.5594 23.9859 12.3016C23.9859 9.04375 23.9719 8.63594 23.9156 7.35625C23.8594 6.08125 23.6531 5.20469 23.3578 4.44531C23.0625 3.64844 22.6547 2.97813 21.9844 2.3125C21.3188 1.64688 20.6484 1.23438 19.8609 0.929688C19.0969 0.634375 18.225 0.428125 16.95 0.371875C15.6656 0.310938 15.2578 0.296875 12 0.296875Z" fill="white"/>
        <path d="M12 6.13281C8.59688 6.13281 5.83594 8.89375 5.83594 12.2969C5.83594 15.7 8.59688 18.4609 12 18.4609C15.4031 18.4609 18.1641 15.7 18.1641 12.2969C18.1641 8.89375 15.4031 6.13281 12 6.13281ZM12 16.2953C9.79219 16.2953 8.00156 14.5047 8.00156 12.2969C8.00156 10.0891 9.79219 8.29844 12 8.29844C14.2078 8.29844 15.9984 10.0891 15.9984 12.2969C15.9984 14.5047 14.2078 16.2953 12 16.2953Z" fill="white"/>
        <path d="M19.8469 5.88926C19.8469 6.68614 19.2 7.32832 18.4078 7.32832C17.6109 7.32832 16.9688 6.68145 16.9688 5.88926C16.9688 5.09238 17.6156 4.4502 18.4078 4.4502C19.2 4.4502 19.8469 5.09707 19.8469 5.88926Z" fill="white"/>
    </g>
    <defs>
        <clipPath id="clip0_1027_90">
            <rect width="24" height="24" fill="white" transform="translate(0 0.296875)"/>
        </clipPath>
    </defs>
</svg>