<svg xmlns="http://www.w3.org/2000/svg" width="40" height="40" viewBox="0 0 40 40" fill="none">
    <path d="M31.1332 20.3386H8.86992C8.70901 20.3386 8.60161 20.4458 8.60161 20.6069V31.8727C8.60161 32.0336 8.76252 32.141 8.89667 32.141L31.1331 32.1408C31.294 32.1408 31.4014 32.0336 31.4014 31.8725L31.4012 20.6068C31.4012 20.4458 31.294 20.3386 31.1331 20.3386H31.1332ZM15.3075 20.8751V24.0938H9.13815V20.8751H15.3075ZM9.13815 31.6043V24.6303H15.3075V31.6043H9.13815ZM30.8649 20.8751V24.0938H24.6956V20.8751H30.8649ZM24.1591 21.1432H15.8439V20.8749H24.1591V21.1432ZM24.1591 21.6798V31.6044H15.8439V21.6798H24.1591ZM24.6956 31.6044V24.6303H30.8649V31.6044H24.6956ZM23.0863 25.1668H16.9169C16.756 25.1668 16.6486 25.274 16.6486 25.4351V29.7269C16.6486 29.8878 16.7558 29.9952 16.9169 29.9952H23.0863C23.2472 29.9952 23.3546 29.888 23.3546 29.7269L23.3544 25.4351C23.3544 25.2742 23.2472 25.1668 23.0863 25.1668ZM22.818 29.4586H17.1851V25.7035H22.818V29.4586ZM23.0863 24.094H16.9169C16.756 24.094 16.6486 24.2012 16.6486 24.3623C16.6486 24.5232 16.7558 24.6306 16.9169 24.6306H23.0863C23.2472 24.6306 23.3546 24.5234 23.3546 24.3623C23.3544 24.2012 23.2472 24.094 23.0863 24.094ZM17.0779 22.4577C17.2925 22.4577 17.4801 22.6187 17.4801 22.8333C17.4801 23.0479 17.2923 23.2088 17.0779 23.2088C16.8633 23.2088 16.6756 23.0479 16.6756 22.8333C16.6756 22.6187 16.8633 22.4577 17.0779 22.4577ZM18.5799 22.4577C18.7945 22.4577 18.9822 22.6187 18.9822 22.8333C18.9822 23.0479 18.7943 23.2088 18.5799 23.2088C18.3653 23.2088 18.1776 23.0479 18.1776 22.8333C18.1776 22.6187 18.3653 22.4577 18.5799 22.4577ZM20.1089 22.4577C20.3235 22.4577 20.5112 22.6187 20.5112 22.8333C20.5112 23.0479 20.3233 23.2088 20.1089 23.2088C19.8943 23.2088 19.7067 23.0479 19.7067 22.8333C19.7065 22.6187 19.8943 22.4577 20.1089 22.4577ZM21.611 22.4577C21.8256 22.4577 22.0133 22.6187 22.0133 22.8333C22.0133 23.0479 21.8254 23.2088 21.611 23.2088C21.3964 23.2088 21.2085 23.0211 21.2085 22.8065C21.2085 22.5919 21.3964 22.4577 21.611 22.4577ZM23.1398 22.4577C23.3544 22.4577 23.5421 22.6187 23.5421 22.8333C23.5421 23.0479 23.3542 23.2088 23.1398 23.2088C22.9252 23.2088 22.7375 23.0479 22.7375 22.8333C22.7375 22.6187 22.8984 22.4577 23.1398 22.4577ZM27.673 22.4577C27.8876 22.4577 28.0753 22.6187 28.0753 22.8333C28.0753 23.0479 27.8874 23.2088 27.673 23.2088C27.4584 23.2088 27.2707 23.0479 27.2707 22.8333C27.2707 22.6187 27.4584 22.4577 27.673 22.4577ZM27.673 15.4837C27.8876 15.4837 28.0753 15.6446 28.0753 15.8592C28.0753 16.0738 27.8874 16.2347 27.673 16.2347C27.4584 16.2347 27.2707 16.0738 27.2707 15.8592C27.2707 15.6448 27.4584 15.4837 27.673 15.4837ZM27.673 25.4888C27.8876 25.4888 28.0753 25.6497 28.0753 25.8643C28.0754 26.0789 27.8876 26.2398 27.673 26.2398C27.4584 26.2398 27.2707 26.0789 27.2707 25.8643C27.2707 25.6497 27.4584 25.4888 27.673 25.4888ZM12.3838 22.4577C12.5984 22.4577 12.786 22.6186 12.786 22.8332C12.786 23.0478 12.5982 23.2087 12.3838 23.2087C12.1691 23.2087 11.9815 23.0478 11.9815 22.8332C11.9815 22.6186 12.1692 22.4577 12.3838 22.4577ZM12.3838 15.4837C12.5984 15.4837 12.786 15.6446 12.786 15.8592C12.786 16.0738 12.5982 16.2347 12.3838 16.2347C12.1691 16.2347 11.9815 16.0738 11.9815 15.8592C11.9815 15.6448 12.1692 15.4837 12.3838 15.4837ZM12.3838 25.4887C12.5984 25.4887 12.786 25.6496 12.786 25.8642C12.786 26.0788 12.5984 26.2398 12.3838 26.2398C12.1691 26.2398 11.9815 26.0788 11.9815 25.8642C11.9815 25.6496 12.1692 25.4887 12.3838 25.4887ZM20.1357 17.1199V16.0471C20.1357 15.8861 20.0284 15.7787 19.8674 15.7787C19.7064 15.7787 19.599 15.886 19.599 16.0471V17.1199C19.599 17.2808 19.7063 17.3882 19.8674 17.3882C20.0284 17.3882 20.1357 17.281 20.1357 17.1199ZM21.7451 17.1199V16.0471C21.7451 15.8861 21.6379 15.7787 21.4768 15.7787C21.3159 15.7787 21.2085 15.886 21.2085 16.0471V17.1199C21.2085 17.2808 21.3157 17.3882 21.4768 17.3882C21.6377 17.3882 21.7451 17.281 21.7451 17.1199ZM18.5262 17.1199V16.0471C18.5262 15.8861 18.419 15.7787 18.2579 15.7787C18.097 15.7787 17.9896 15.886 17.9896 16.0471V17.1199C17.9896 17.2808 18.0968 17.3882 18.2579 17.3882C18.419 17.3882 18.5262 17.281 18.5262 17.1199ZM31.1331 8H8.86987C8.73572 8 8.60156 8.10721 8.60156 8.26831V17.12C8.60156 17.2809 8.70877 17.3883 8.86987 17.3883H13.9663C14.1272 17.3883 14.2346 17.2811 14.2346 17.12V8.53654H18.5264V11.3798L15.6562 14.5181C15.5758 14.5985 15.5758 14.7059 15.6025 14.8131C15.6562 14.9203 15.7367 14.974 15.8439 14.974H24.1591C24.2663 14.974 24.3469 14.9203 24.4004 14.8131C24.4541 14.7059 24.4272 14.5985 24.3737 14.5181L21.7451 11.3798V8.53654H25.7685V17.12C25.7685 17.2809 25.8757 17.3883 26.0368 17.3883H31.1333C31.2942 17.3883 31.4016 17.2811 31.4016 17.12L31.4014 8.26831C31.4014 8.10721 31.2942 8 31.1333 8H31.1331ZM13.698 16.8517H9.13796V8.53646H13.6979L13.698 16.8517ZM21.2622 11.648L23.5958 14.4375H16.4608L19.0089 11.6747C19.0626 11.621 19.0894 11.5675 19.0894 11.4868V8.53637H21.2353V11.487C21.2084 11.5407 21.2353 11.6212 21.2621 11.6479L21.2622 11.648ZM30.8649 16.8517H26.305V8.53646H30.8649V16.8517Z" fill="#FFDA0C"/>
</svg>