<svg xmlns="http://www.w3.org/2000/svg" width="24" height="24" viewBox="0 0 24 24" fill="none">
  <path d="M20.5556 1C21.2039 1 21.8256 1.25754 22.284 1.71596C22.7425 2.17438 23 2.79614 23 3.44444V20.5556C23 21.2039 22.7425 21.8256 22.284 22.284C21.8256 22.7425 21.2039 23 20.5556 23H3.44444C2.79614 23 2.17438 22.7425 1.71596 22.284C1.25754 21.8256 1 21.2039 1 20.5556V3.44444C1 2.79614 1.25754 2.17438 1.71596 1.71596C2.17438 1.25754 2.79614 1 3.44444 1H20.5556ZM19.9444 19.9444V13.4667C19.9444 12.4099 19.5247 11.3965 18.7774 10.6492C18.0302 9.90201 17.0167 9.48222 15.96 9.48222C14.9211 9.48222 13.7111 10.1178 13.1244 11.0711V9.71444H9.71444V19.9444H13.1244V13.9189C13.1244 12.9778 13.8822 12.2078 14.8233 12.2078C15.2771 12.2078 15.7124 12.3881 16.0333 12.709C16.3542 13.0298 16.5344 13.4651 16.5344 13.9189V19.9444H19.9444ZM5.74222 7.79556C6.2868 7.79556 6.80907 7.57922 7.19415 7.19415C7.57922 6.80907 7.79556 6.2868 7.79556 5.74222C7.79556 4.60556 6.87889 3.67667 5.74222 3.67667C5.1944 3.67667 4.66902 3.89429 4.28165 4.28165C3.89429 4.66902 3.67667 5.1944 3.67667 5.74222C3.67667 6.87889 4.60556 7.79556 5.74222 7.79556ZM7.44111 19.9444V9.71444H4.05556V19.9444H7.44111Z" fill="white"/>
</svg>