<svg xmlns="http://www.w3.org/2000/svg" width="40" height="40" viewBox="0 0 40 40" fill="none">
    <path d="M33.2819 31.2164V21.7393C33.2843 21.4289 33.1627 21.1303 32.9442 20.9095C32.7255 20.689 32.4281 20.5646 32.1175 20.564H31.2969V14.4204C31.2969 14.6378 31.1205 14.8142 30.9032 14.8142C30.6858 14.8142 30.5096 14.6378 30.5096 14.4204V20.564L29.3118 20.5642V16.9824C29.3053 16.3521 29.0519 15.7495 28.6061 15.3038C28.1606 14.858 27.558 14.6048 26.9277 14.5981C26.2969 14.5996 25.6925 14.8515 25.2475 15.2987C24.8023 15.7458 24.5532 16.3515 24.5546 16.9824V20.5642H23.3459V11.4046H30.5094V13.1567C30.5094 12.9394 30.6856 12.763 30.903 12.763C31.1203 12.763 31.2967 12.9394 31.2967 13.1567V11.4046H32.8937H32.8935C33.0611 11.4065 33.2113 11.3012 33.2666 11.1431C33.322 10.9847 33.27 10.8089 33.1374 10.706L28.9457 7.35697C28.3725 6.90437 27.6635 6.6582 26.9331 6.6582C26.2026 6.6582 25.4936 6.90437 24.9203 7.35697L20.7175 10.706C20.3183 11.0831 20.529 11.3825 20.9614 11.4046H22.5583V18.5791H22.159C20.656 18.5779 19.2301 19.244 18.2668 20.3979L14.4189 25.0219V21.0853H15.439C16.4162 21.0922 17.3508 20.6852 18.0117 19.9653C18.6361 19.2502 18.9192 18.2995 18.7881 17.3594C18.668 16.4453 18.174 15.6221 17.424 15.086C17.6024 14.6807 17.693 14.2424 17.6902 13.7997C17.6857 13.193 17.516 12.5989 17.1997 12.0811C16.8832 11.5634 16.4317 11.1418 15.8937 10.8611C15.8154 10.0682 15.4537 9.33023 14.8753 8.7824C14.2968 8.23438 13.5403 7.9134 12.7444 7.87813C11.9484 7.91341 11.1918 8.23439 10.6136 8.7824C10.0351 9.33023 9.67345 10.0682 9.59508 10.8611C8.85473 11.2433 8.28519 11.8899 7.99965 12.6726C7.71413 13.4555 7.73325 14.3169 8.05367 15.086C7.30368 15.6221 6.80965 16.4453 6.68955 17.3594C6.56238 18.301 6.84958 19.2517 7.47705 19.9653C8.1348 20.6831 9.06506 21.0896 10.0386 21.0853H11.6576V28.3443L11.4192 28.626L11.2085 28.8811L10.643 29.5575C10.2439 30.0786 10.0109 30.5001 9.31233 30.5001L7.04446 30.5002C6.82726 30.5038 6.65386 30.6822 6.65627 30.8994V32.8843C6.65869 33.0978 6.83115 33.2701 7.04446 33.2725H8.8298C9.44782 33.2759 10.061 33.163 10.6374 32.9398L11.2029 32.6627L11.5356 32.4963C11.5779 32.4718 11.6176 32.4432 11.6542 32.4109V32.9409C11.6828 33.1321 11.8469 33.2736 12.0402 33.2736H14.024C14.1276 33.274 14.2271 33.233 14.3004 33.1596C14.3735 33.0863 14.4146 32.9868 14.4144 32.8832V29.4168L20.5732 22.028V32.8823C20.5613 32.9926 20.597 33.1025 20.6708 33.1849C20.7449 33.2672 20.8506 33.3143 20.9612 33.3143C21.072 33.3143 21.1775 33.2672 21.2516 33.1849C21.3256 33.1025 21.3611 32.9926 21.3494 32.8823V31.219C21.3499 31.2102 21.3499 31.2013 21.3494 31.1924V21.7401C21.349 21.6343 21.391 21.5325 21.466 21.4575C21.541 21.3825 21.6427 21.3406 21.7485 21.3409H23.4485V32.8293C23.4485 33.0435 23.6223 33.2173 23.8367 33.2173C24.0511 33.2173 24.2249 33.0435 24.2249 32.8293V31.6925H29.6333V32.8293C29.6333 33.0435 29.807 33.2173 30.0213 33.2173C30.2357 33.2173 30.4095 33.0435 30.4095 32.8293V21.3409H32.1172C32.3345 21.3446 32.5079 21.5229 32.5054 21.7401V32.8824C32.4936 32.9927 32.5292 33.1026 32.6031 33.185C32.6772 33.2673 32.7828 33.3144 32.8934 33.3144C33.0043 33.3144 33.1097 33.2673 33.1838 33.185C33.2579 33.1026 33.2935 32.9927 33.2816 32.8824L33.2819 31.2164ZM13.632 25.9648L13.3992 26.242L13.1774 26.5082L12.6228 27.1736L12.4233 27.4175V12.0145C12.4262 11.7891 12.5486 11.5823 12.7448 11.4711C12.8345 11.4269 12.9331 11.4043 13.0331 11.4047C13.1939 11.4047 13.3478 11.4693 13.4605 11.584C13.5732 11.6987 13.635 11.8537 13.632 12.0145V25.9648ZM10.039 20.276C9.29194 20.2887 8.57611 19.9771 8.07615 19.4221C7.58773 18.846 7.38294 18.0815 7.51829 17.3383C7.65363 16.5954 8.11459 15.9521 8.77477 15.5851C8.87223 15.5355 8.94445 15.4473 8.97397 15.3419C9.00348 15.2366 8.98752 15.1238 8.93015 15.0307C8.71666 14.6557 8.60565 14.2312 8.60843 13.7997C8.60862 13.3074 8.75528 12.8262 9.02966 12.4174C9.30423 12.0086 9.69407 11.6908 10.1498 11.5042C10.2922 11.4381 10.3832 11.2954 10.3828 11.1383C10.3988 10.5084 10.6502 9.90749 11.0873 9.45377C11.5245 9.00023 12.116 8.72677 12.7448 8.68761C13.373 8.72548 13.9639 8.99875 14.3998 9.45301C14.8355 9.90728 15.0839 10.509 15.0956 11.1383C15.1045 11.2956 15.1979 11.4357 15.3396 11.5042C15.7927 11.6932 16.18 12.012 16.4521 12.4204C16.7245 12.829 16.8699 13.3089 16.87 13.7997C16.8782 14.2319 16.7668 14.6578 16.5483 15.0307C16.5047 15.128 16.493 15.2368 16.5151 15.3411C16.5453 15.4464 16.6176 15.5345 16.7146 15.585C17.4079 15.9777 17.8792 16.6703 17.99 17.4592C18.0866 18.1694 17.8677 18.8866 17.3911 19.422C16.897 19.9786 16.1837 20.2906 15.4394 20.276H14.4193V16.8061L15.7289 15.5407C15.9067 15.368 15.911 15.0838 15.7383 14.906C15.5657 14.728 15.2815 14.7239 15.1035 14.8965L14.4192 15.5619L14.4194 12.0143C14.4194 11.5192 14.155 11.0616 13.7262 10.8139C13.2973 10.5663 12.769 10.5663 12.3401 10.8139C11.9111 11.0616 11.6469 11.5192 11.6469 12.0143V13.8996L10.9394 13.2897C10.7523 13.1273 10.4692 13.1475 10.3068 13.3345C10.1445 13.5216 10.1647 13.8049 10.3517 13.9671L11.6469 15.086V18.0025L10.293 17.204C10.0786 17.0776 9.80238 17.1489 9.67596 17.3633C9.54935 17.5776 9.62064 17.8538 9.83506 17.9804L11.647 19.0549V20.2748L10.039 20.276ZM12.4222 32.4963V31.7799C12.4886 31.7134 12.5553 31.6467 12.6217 31.5691L13.1763 30.9038L13.3981 30.6376L13.6342 30.3559L13.6341 32.4963H12.4222ZM22.5589 20.564H21.3279C20.9811 20.565 20.6523 20.7192 20.4297 20.9853C20.4297 20.9853 13.865 28.7699 13.011 29.7347C12.6887 30.1691 12.3407 30.5838 11.9688 30.9767C11.7298 31.2336 11.4742 31.4744 11.2035 31.6976C11.0815 31.8084 10.9596 31.9083 10.8265 32.0081V32.008C10.2092 32.3263 9.52507 32.4936 8.83039 32.496H7.44417V31.2873L9.30712 31.2761H9.30731C9.88208 31.2773 10.4273 31.0209 10.7932 30.5776L11.2035 30.0897L11.6582 29.5463L11.9688 29.1692L12.4234 28.6258L13.6322 27.1732L14.4195 26.2416V26.2304L18.8662 20.8966C19.6818 19.9205 20.8877 19.3561 22.1596 19.3552H22.5587L22.5589 20.564ZM22.0819 10.6279L25.3976 7.96647H25.3978C25.8333 7.62173 26.3726 7.43424 26.9281 7.43424C27.4835 7.43424 28.0228 7.62174 28.4583 7.96647L31.7851 10.6279H22.0819ZM29.6337 23.0601H24.2244V21.3766H29.6337V23.0601ZM29.6337 23.8363V25.6793H24.2244V23.8351L29.6337 23.8363ZM24.2244 26.4555H29.6337V28.2998H24.2244V26.4555ZM24.2244 30.9179L24.2246 29.0737H29.6339V30.9168L24.2244 30.9179ZM25.3333 16.983H25.3334C25.3334 16.4125 25.6379 15.8853 26.1319 15.6001C26.6259 15.3148 27.2346 15.3148 27.7289 15.6001C28.2229 15.8853 28.5271 16.4125 28.5271 16.983V20.5649H25.3312L25.3333 16.983Z" fill="#FFDA0C"/>
    <path d="M30.9031 12.7637C30.6881 12.7637 30.514 12.938 30.514 13.153V14.4215C30.5021 14.5317 30.5377 14.6416 30.6116 14.7241C30.6857 14.8063 30.7913 14.8535 30.902 14.8535C31.0128 14.8535 31.1182 14.8063 31.1923 14.7241C31.2664 14.6416 31.3019 14.5317 31.2902 14.4215V13.153C31.2902 12.9389 31.1171 12.765 30.9031 12.7637Z" fill="#FFDA0C"/>
</svg>