<svg xmlns="http://www.w3.org/2000/svg" width="40" height="40" viewBox="0 0 40 40" fill="none">
    <path d="M34.2432 25.24V25.2081C34.2113 24.9201 34.1153 24.6641 33.9553 24.44L31.9713 19.0001V18.0081C31.9713 15.8961 30.2435 14.1682 28.1314 14.1682L21.6674 14.168C19.5553 14.168 17.8275 15.8959 17.8275 18.0079V18.9999L15.7154 24.6959C15.6835 24.7599 15.6513 24.8559 15.6194 24.92L15.5234 25.1119V25.3039V25.5599V29.784H16.1634V27.7999H33.6354V29.7838H34.2753V25.5599V25.3999C34.2753 25.336 34.2753 25.3039 34.2432 25.2401L34.2432 25.24ZM18.2752 19.64H20.4511V20.6001C20.4511 20.792 20.579 20.9201 20.7712 20.9201H29.0272C29.2192 20.9201 29.3473 20.7922 29.3473 20.6001V19.64H31.5232L32.9313 23.5121C32.6433 23.3842 32.3554 23.3201 32.0034 23.3201L17.7634 23.3199C17.4114 23.3199 17.0912 23.384 16.8033 23.544L18.2752 19.64ZM28.7072 17.2079V20.28H25.2193V17.2079H28.7072ZM24.5791 20.28H21.0912V17.2079H24.5791V20.28ZM18.4671 18.0079C18.4671 16.2478 19.9071 14.8079 21.6671 14.8079H28.1311C29.8912 14.8079 31.3311 16.2478 31.3311 18.0079V18.9998H29.3472V16.8878C29.3472 16.6958 29.2193 16.5677 29.0271 16.5677L20.7711 16.5679C20.5791 16.5679 20.451 16.6958 20.451 16.888V19H18.4671L18.4671 18.0079ZM16.1631 25.5599C16.1631 25.3679 16.195 25.176 16.2591 24.984L16.291 24.9199C16.5471 24.344 17.091 23.9599 17.7631 23.9599H32.0351C32.611 23.9599 33.0911 24.2478 33.3791 24.6958L33.6033 25.3358C33.6033 25.3998 33.6352 25.4958 33.6352 25.5599L33.6349 27.1599H16.1629L16.1631 25.5599Z" fill="#FFDA0C"/>
    <path d="M6.30655 28.76V29.7842H6.94649V28.76H12.3226V29.7842H12.9625V28.76H13.2186C13.4105 28.76 13.5387 28.6321 13.5387 28.44L13.5384 18.872C13.5384 17.976 12.8344 17.272 11.9384 17.272H10.0183V14.2961L12.3226 14.2958C12.4185 14.2958 12.5145 14.2639 12.5786 14.1679C12.6427 14.1039 12.6746 14.0079 12.6427 13.9119L12.1306 11.4479C11.9706 10.7119 11.3306 10.168 10.5625 10.168H8.70654C7.93849 10.168 7.29849 10.7119 7.13849 11.4479L6.62643 13.9119C6.59451 14.0079 6.62643 14.1039 6.6905 14.1679C6.75456 14.232 6.85054 14.2958 6.94653 14.2958H9.34653V17.2717H7.33047C6.43447 17.2717 5.73047 17.9757 5.73047 18.8717V28.4403C5.73047 28.6323 5.85837 28.7604 6.05056 28.7604L6.30655 28.76ZM7.74649 11.544C7.84247 11.0961 8.2264 10.776 8.67438 10.776H10.5304C10.9784 10.776 11.3944 11.0961 11.4583 11.544L11.8743 13.6239H7.33033L7.74649 11.544ZM12.8666 23.384H6.37061V20.984H12.8666V23.384ZM6.37061 24.024H12.8666V28.12H6.37061V24.024ZM7.33044 17.912H11.9063C12.4503 17.912 12.8664 18.3281 12.8664 18.872V20.3442H6.37038V18.872C6.37038 18.3281 6.81837 17.912 7.33021 17.912H7.33044Z" fill="#FFDA0C"/>
    <path d="M8.76953 21.8164H10.4655V22.4563H8.76953V21.8164Z" fill="#FFDA0C"/>
    <path d="M8.76953 18.8086H10.4655V19.4485H8.76953V18.8086Z" fill="#FFDA0C"/>
    <path d="M8.76953 25.0156H10.4655V25.6556H8.76953V25.0156Z" fill="#FFDA0C"/>
</svg>