<svg xmlns="http://www.w3.org/2000/svg" width="22" height="21" viewBox="0 0 22 21" fill="none">
    <path fill-rule="evenodd" clip-rule="evenodd" d="M19.3235 0.726677C15.545 2.76593 5.05248 8.42769 1.28823 10.4587C0.781229 10.7324 0.475982 11.2709 0.501482 11.8462C0.527732 12.4207 0.880226 12.9307 1.40898 13.1572L6.49248 15.3389L6.46773 18.5272C6.46248 19.1474 6.84048 19.7077 7.41873 19.9342C7.99623 20.1614 8.65473 20.0092 9.07398 19.5517L11.2212 17.2057L16.694 19.0169C17.105 19.1534 17.5557 19.1047 17.9285 18.8834C18.302 18.6629 18.5615 18.2917 18.6402 17.8649L21.5105 2.31967C21.6155 1.75192 21.3852 1.17443 20.9187 0.833931C20.4515 0.494181 19.8312 0.452927 19.3235 0.726677ZM19.8035 3.30592L17.165 17.5927L11.2317 15.6292C10.9512 15.5362 10.6422 15.6172 10.4427 15.8347L7.96773 18.5384L7.99397 15.1582L19.8035 3.30592ZM1.99998 11.7787L7.07448 13.9559L17.666 3.32542L1.99998 11.7787Z" fill="white"/>
</svg>