<svg xmlns="http://www.w3.org/2000/svg" width="22" height="20" viewBox="0 0 22 20" fill="none">
    <path fill-rule="evenodd" clip-rule="evenodd" d="M19.3235 0.429802C15.545 2.46905 5.05248 8.13081 1.28823 10.1618C0.781229 10.4356 0.475982 10.9741 0.501482 11.5493C0.527732 12.1238 0.880226 12.6338 1.40898 12.8603L6.49248 15.0421L6.46773 18.2303C6.46248 18.8506 6.84048 19.4108 7.41873 19.6373C7.99623 19.8646 8.65473 19.7123 9.07398 19.2548L11.2212 16.9088L16.694 18.72C17.105 18.8565 17.5557 18.8078 17.9285 18.5866C18.302 18.3661 18.5615 17.9948 18.6402 17.5681L21.5105 2.0228C21.6155 1.45505 21.3852 0.877556 20.9187 0.537056C20.4515 0.197306 19.8312 0.156052 19.3235 0.429802ZM19.8035 3.00905L17.165 17.2958L11.2317 15.3323C10.9512 15.2393 10.6422 15.3203 10.4427 15.5378L7.96773 18.2415L7.99397 14.8613L19.8035 3.00905ZM1.99998 11.4818L7.07448 13.6591L17.666 3.02855L1.99998 11.4818Z" fill="#262626"/>
</svg>