<svg xmlns="http://www.w3.org/2000/svg" width="24" height="25" viewBox="0 0 24 25" fill="none">
    <path d="M23.7609 7.49668C23.7609 7.49668 23.5266 5.84199 22.8047 5.11543C21.8906 4.15918 20.8688 4.15449 20.4 4.09824C17.0438 3.85449 12.0047 3.85449 12.0047 3.85449H11.9953C11.9953 3.85449 6.95625 3.85449 3.6 4.09824C3.13125 4.15449 2.10938 4.15918 1.19531 5.11543C0.473438 5.84199 0.24375 7.49668 0.24375 7.49668C0.24375 7.49668 0 9.44199 0 11.3826V13.2014C0 15.142 0.239062 17.0873 0.239062 17.0873C0.239062 17.0873 0.473437 18.742 1.19062 19.4686C2.10469 20.4248 3.30469 20.392 3.83906 20.4951C5.76094 20.6779 12 20.7342 12 20.7342C12 20.7342 17.0438 20.7248 20.4 20.4857C20.8688 20.4295 21.8906 20.4248 22.8047 19.4686C23.5266 18.742 23.7609 17.0873 23.7609 17.0873C23.7609 17.0873 24 15.1467 24 13.2014V11.3826C24 9.44199 23.7609 7.49668 23.7609 7.49668ZM9.52031 15.4092V8.66387L16.0031 12.0482L9.52031 15.4092Z" fill="white"/>
</svg>